<?xml version="1.0" encoding="UTF-8" standalone="no"?>
<!-- Created with Inkscape (http://www.inkscape.org/) -->

<svg
   xmlns:dc="http://purl.org/dc/elements/1.1/"
   xmlns:cc="http://creativecommons.org/ns#"
   xmlns:rdf="http://www.w3.org/1999/02/22-rdf-syntax-ns#"
   xmlns:svg="http://www.w3.org/2000/svg"
   xmlns="http://www.w3.org/2000/svg"
   xmlns:sodipodi="http://sodipodi.sourceforge.net/DTD/sodipodi-0.dtd"
   xmlns:inkscape="http://www.inkscape.org/namespaces/inkscape"
   width="110.81028"
   height="99.999992"
   viewBox="0 0 29.318555 26.458332"
   version="1.1"
   id="svg8"
   sodipodi:docname="2.svg"
   inkscape:version="0.92.4 (5da689c313, 2019-01-14)">
  <defs
     id="defs2" />
  <sodipodi:namedview
     id="base"
     pagecolor="#ffffff"
     bordercolor="#666666"
     borderopacity="1.0"
     inkscape:pageopacity="0.0"
     inkscape:pageshadow="2"
     inkscape:zoom="0.7"
     inkscape:cx="-88.506827"
     inkscape:cy="245.52541"
     inkscape:document-units="mm"
     inkscape:current-layer="layer1"
     showgrid="false"
     fit-margin-top="0"
     fit-margin-left="0"
     fit-margin-right="0"
     fit-margin-bottom="0"
     units="px"
     inkscape:window-width="1600"
     inkscape:window-height="837"
     inkscape:window-x="-8"
     inkscape:window-y="-8"
     inkscape:window-maximized="1" />
  <metadata
     id="metadata5">
    <rdf:RDF>
      <cc:Work
         rdf:about="">
        <dc:format>image/svg+xml</dc:format>
        <dc:type
           rdf:resource="http://purl.org/dc/dcmitype/StillImage" />
        <dc:title></dc:title>
      </cc:Work>
    </rdf:RDF>
  </metadata>
  <g
     inkscape:label="Layer 1"
     inkscape:groupmode="layer"
     id="layer1"
     transform="translate(-101.27049,-192.68232)">
    <path
       style="fill:#1575b3;fill-opacity:1;stroke-width:1"
       d="m 106.34304,219.00474 c -0.57478,-0.34792 -0.56256,-1.1702 0.0218,-1.46833 0.21615,-0.11028 0.33404,-0.11544 2.63648,-0.11544 h 2.41022 v -1.2613 -1.26129 h 4.52921 4.52921 v 1.26129 1.2613 h 2.41022 c 2.30244,0 2.42033,0.005 2.63649,0.11544 0.25434,0.12975 0.45714,0.46005 0.45714,0.74454 0,0.28449 -0.2028,0.61478 -0.45714,0.74454 -0.22405,0.1143 -0.31826,0.11543 -9.58797,0.11514 l -9.36169,-2.1e-4 z m -3.91348,-5.93219 c -0.57586,-0.19949 -0.9846,-0.6544 -1.10915,-1.23442 -0.0447,-0.2084 -0.0579,-2.84878 -0.0455,-9.09409 l 0.0176,-8.80042 0.15996,-0.32574 c 0.18123,-0.36904 0.459,-0.63835 0.84044,-0.81484 l 0.2609,-0.12072 h 13.38697 13.38696 l 0.26091,0.12072 c 0.38143,0.17649 0.6592,0.4458 0.84043,0.81484 l 0.15996,0.32574 v 8.97242 8.97242 l -0.15996,0.32573 c -0.18123,0.36904 -0.459,0.63835 -0.84043,0.81484 l -0.26091,0.12073 -13.30097,0.0127 c -12.65151,0.0121 -13.31543,0.008 -13.59723,-0.0899 z"
       id="path846"
       inkscape:connector-curvature="0" />
  </g>
</svg>
