<?xml version="1.0" encoding="UTF-8" standalone="no"?>
<!-- Created with Inkscape (http://www.inkscape.org/) -->

<svg
   xmlns:dc="http://purl.org/dc/elements/1.1/"
   xmlns:cc="http://creativecommons.org/ns#"
   xmlns:rdf="http://www.w3.org/1999/02/22-rdf-syntax-ns#"
   xmlns:svg="http://www.w3.org/2000/svg"
   xmlns="http://www.w3.org/2000/svg"
   xmlns:sodipodi="http://sodipodi.sourceforge.net/DTD/sodipodi-0.dtd"
   xmlns:inkscape="http://www.inkscape.org/namespaces/inkscape"
   width="60.253975"
   height="100"
   viewBox="0 0 15.9422 26.458334"
   version="1.1"
   id="svg8"
   sodipodi:docname="4.svg"
   inkscape:version="0.92.4 (5da689c313, 2019-01-14)">
  <defs
     id="defs2" />
  <sodipodi:namedview
     id="base"
     pagecolor="#ffffff"
     bordercolor="#666666"
     borderopacity="1.0"
     inkscape:pageopacity="0.0"
     inkscape:pageshadow="2"
     inkscape:zoom="0.7"
     inkscape:cx="74.55288"
     inkscape:cy="324.18952"
     inkscape:document-units="mm"
     inkscape:current-layer="layer1"
     showgrid="false"
     fit-margin-top="0"
     fit-margin-left="0"
     fit-margin-right="0"
     fit-margin-bottom="0"
     units="px"
     inkscape:window-width="1600"
     inkscape:window-height="837"
     inkscape:window-x="-8"
     inkscape:window-y="-8"
     inkscape:window-maximized="1" />
  <metadata
     id="metadata5">
    <rdf:RDF>
      <cc:Work
         rdf:about="">
        <dc:format>image/svg+xml</dc:format>
        <dc:type
           rdf:resource="http://purl.org/dc/dcmitype/StillImage" />
        <dc:title></dc:title>
      </cc:Work>
    </rdf:RDF>
  </metadata>
  <g
     inkscape:label="Layer 1"
     inkscape:groupmode="layer"
     id="layer1"
     transform="translate(-58.127612,-217.52704)">
    <g
       id="g917"
       transform="matrix(0.19532787,0,0,0.19532787,46.773669,196.32823)"
       style="stroke-width:5.11959696">
      <path
         id="path910"
         d="m 65.405822,243.58909 c -3.65312,-0.98389 -6.31476,-4.03335 -6.9602,-7.97437 -0.13873,-0.84704 -0.25292,-3.35578 -0.25376,-5.57497 l -10e-4,-4.0349 h 40.77719 40.777188 l -0.11476,5.09323 c -0.10539,4.67711 -0.16866,5.2243 -0.77439,6.69745 -0.84695,2.05978 -1.87642,3.35122 -3.57861,4.48924 -2.67937,1.79132 -1.00705,1.71362 -36.462518,1.69434 -26.6678,-0.0145 -32.25658,-0.0798 -33.4086,-0.39002 z"
         style="fill:#1575b3;fill-opacity:1;stroke-width:5.11959696"
         inkscape:connector-curvature="0" />
      <path
         d="m 93.569462,189.24088 c 0.3709,-0.34554 1.67606,-3.88628 3.94992,-10.71562 1.86781,-5.60976 3.463988,-10.19957 3.547078,-10.19957 0.0831,0 1.21123,3.54211 2.50698,7.87135 2.51444,8.40104 2.83039,9.06198 4.33177,9.06198 0.44929,0 1.07482,-0.25718 1.44794,-0.59531 0.3613,-0.32742 2.20466,-3.31945 4.09635,-6.64894 l 3.43944,-6.05363 1.45061,2.89242 c 0.79783,1.59083 1.65061,3.05842 1.89506,3.26129 0.59391,0.4929 4.68529,0.6792 6.16256,0.28061 0.89478,-0.24143 1.22711,-0.49945 1.57036,-1.21925 0.40375,-0.84667 0.40384,-0.97918 0.001,-1.82338 -0.49746,-1.04319 -1.58445,-1.46698 -3.76889,-1.46941 l -1.32692,-0.001 -2.0537,-4.11752 c -1.82209,-3.65318 -2.15565,-4.16012 -2.95781,-4.49529 -1.7974,-0.751 -2.1019,-0.42723 -5.88048,6.25263 -1.71766,3.03651 -3.19512,5.52413 -3.28325,5.52805 -0.0881,0.004 -1.33829,-3.9517 -2.77813,-8.79027 -2.82115,-9.48046 -3.05814,-9.98802 -4.66365,-9.98802 -1.743448,0 -1.762168,0.0389 -5.667508,11.76634 -2.00949,6.03436 -3.73869,10.88593 -3.84266,10.78126 -0.10398,-0.10467 -1.48716,-3.11073 -3.07373,-6.68013 -1.58657,-3.56941 -3.10189,-6.94757 -3.36737,-7.50703 -0.8236,-1.73559 -2.69625,-2.11509 -3.86888,-0.78403 -0.23906,0.27136 -1.28165,2.19003 -2.31687,4.2637 l -1.88221,3.77031 -2.44563,0.002 c -3.30206,0.002 -4.33612,0.31287 -4.88764,1.46941 -0.40244,0.84392 -0.40244,0.9768 0,1.82072 0.32511,0.68177 0.68621,0.98036 1.43806,1.18915 1.29498,0.35961 6.52896,0.36094 7.82149,0.002 0.92897,-0.25799 1.09319,-0.46913 2.41644,-3.10684 l 1.41972,-2.83005 0.39346,0.9255 c 2.87273,6.75729 6.95943,15.57842 7.38506,15.94061 0.72363,0.61578 2.10192,0.5896 2.79171,-0.053 z m -35.2566,31.93617 c -0.0693,-0.18236 -0.0955,-20.51266 -0.0582,-45.17844 l 0.0679,-44.84688 h 40.61354 40.613538 v 45.11146 45.11146 l -40.555368,0.067 c -32.30515,0.0534 -40.58103,-5.3e-4 -40.68147,-0.26459 z"
         style="fill:#1575b3;fill-opacity:1;stroke-width:5.11959696"
         id="path888"
         inkscape:connector-curvature="0" />
      <path
         d="m 111.78048,121.3742 c 0.89126,-0.89127 0.87686,-2.21967 -0.0333,-3.07476 L 111.0644,117.658 h -12.128238 -12.1282 l -0.68278,0.64144 c -0.92183,0.86601 -0.91583,2.09606 0.0148,3.02665 l 0.69754,0.69754 h 12.14679 12.146778 z m -53.538108,0.0541 c 0.10539,-4.67711 0.16865,-5.2243 0.77439,-6.69745 0.84694,-2.05978 1.87642,-3.35122 3.5786,-4.48924 2.6765,-1.7894 1.02795,-1.71175 36.3408,-1.71175 35.312848,0 33.664288,-0.0776 36.340788,1.71175 1.70219,1.13802 2.73166,2.42946 3.57861,4.48924 0.60573,1.47315 0.669,2.02034 0.77439,6.69745 l 0.11476,5.09323 H 98.936162 58.127612 Z"
         style="fill:#1575b3;fill-opacity:1;stroke-width:5.11959696"
         id="path872"
         inkscape:connector-curvature="0" />
    </g>
  </g>
</svg>
