<?xml version="1.0" encoding="UTF-8" standalone="no"?>
<!-- Created with Inkscape (http://www.inkscape.org/) -->

<svg
   xmlns:dc="http://purl.org/dc/elements/1.1/"
   xmlns:cc="http://creativecommons.org/ns#"
   xmlns:rdf="http://www.w3.org/1999/02/22-rdf-syntax-ns#"
   xmlns:svg="http://www.w3.org/2000/svg"
   xmlns="http://www.w3.org/2000/svg"
   xmlns:sodipodi="http://sodipodi.sourceforge.net/DTD/sodipodi-0.dtd"
   xmlns:inkscape="http://www.inkscape.org/namespaces/inkscape"
   width="76.184532"
   height="99.399994"
   viewBox="0 0 20.15716 26.299583"
   version="1.1"
   id="svg8"
   sodipodi:docname="5.svg"
   inkscape:version="0.92.4 (5da689c313, 2019-01-14)">
  <defs
     id="defs2" />
  <sodipodi:namedview
     id="base"
     pagecolor="#ffffff"
     bordercolor="#666666"
     borderopacity="1.0"
     inkscape:pageopacity="0.0"
     inkscape:pageshadow="2"
     inkscape:zoom="0.7"
     inkscape:cx="318.72403"
     inkscape:cy="202.7159"
     inkscape:document-units="mm"
     inkscape:current-layer="layer1"
     showgrid="false"
     fit-margin-top="-0.3"
     fit-margin-left="0"
     fit-margin-right="0"
     fit-margin-bottom="-0.3"
     units="px"
     inkscape:window-width="1600"
     inkscape:window-height="837"
     inkscape:window-x="-8"
     inkscape:window-y="-8"
     inkscape:window-maximized="1" />
  <metadata
     id="metadata5">
    <rdf:RDF>
      <cc:Work
         rdf:about="">
        <dc:format>image/svg+xml</dc:format>
        <dc:type
           rdf:resource="http://purl.org/dc/dcmitype/StillImage" />
        <dc:title></dc:title>
      </cc:Work>
    </rdf:RDF>
  </metadata>
  <g
     inkscape:label="Layer 1"
     inkscape:groupmode="layer"
     id="layer1"
     transform="translate(6.4760054,-294.1612)">
    <path
       style="fill:#1575b3;fill-opacity:1;stroke-width:1"
       d="m -4.6891318,320.46574 c -0.4311206,-0.10787 -0.7587431,-0.29583 -1.0856196,-0.62284 -0.3353352,-0.33547 -0.5442102,-0.71284 -0.6385465,-1.15363 -0.08361,-0.39068 -0.08361,-22.36686 0,-22.75753 0.1886394,-0.88144 0.9098645,-1.60267 1.7913023,-1.79131 0.1937291,-0.0415 1.7771738,-0.0586 5.41290331,-0.0586 H 5.9299776 v 2.81372 c 0,1.90219 0.018984,2.90242 0.058605,3.08755 0.1886375,0.88144 0.9098626,1.60266 1.7913023,1.7913 0.185124,0.0396 1.1853601,0.0586 3.0875511,0.0586 h 2.813717 v 8.29121 c 0,5.98564 -0.01629,8.36736 -0.05861,8.56505 -0.188638,0.88144 -0.909863,1.60266 -1.791302,1.7913 -0.413106,0.0884 -16.1642643,0.0743 -16.520378,-0.0148 z m 10.2070779,-4.73299 c 0.2292434,-0.11695 0.4120315,-0.41466 0.4120315,-0.67107 0,-0.24786 -0.1720795,-0.52994 -0.4021783,-0.65926 L 5.3216507,314.28656 H 2.0543898 c -3.2321352,0 -3.2693525,10e-4 -3.4619821,0.10944 -0.2256888,0.12684 -0.4136056,0.42755 -0.4136056,0.66185 0,0.25199 0.1816573,0.55654 0.4010475,0.67237 0.1863329,0.0984 0.3096135,0.10209 3.4636813,0.10429 3.1781548,0.002 3.2762273,-5.9e-4 3.4744152,-0.10176 z m 3.1004683,-3.10047 c 0.2292434,-0.11695 0.4120334,-0.41466 0.4120334,-0.67107 0,-0.24786 -0.1720814,-0.52994 -0.4021803,-0.65926 L 8.422119,311.18609 H 3.604625 c -4.811133,0 -4.8177519,1.5e-4 -5.0122173,0.10944 -0.2256888,0.12684 -0.4136056,0.42755 -0.4136056,0.66185 0,0.25199 0.1816573,0.55654 0.4010475,0.67237 0.1882742,0.0994 0.3163652,0.10207 5.0139164,0.10429 4.7317999,0.002 4.8244664,3.9e-4 5.0246484,-0.10176 z m 0,-3.10047 c 0.2292434,-0.11695 0.4120334,-0.41466 0.4120334,-0.67107 0,-0.24786 -0.1720814,-0.52994 -0.4021803,-0.65926 L 8.422119,308.08562 H 3.604625 c -4.811133,0 -4.8177519,1.5e-4 -5.0122173,0.10944 -0.2256888,0.12684 -0.4136056,0.42755 -0.4136056,0.66185 0,0.25199 0.1816573,0.55654 0.4010475,0.67237 0.1882742,0.0994 0.3163652,0.10207 5.0139164,0.10429 4.7317999,0.002 4.8244664,3.9e-4 5.0246484,-0.10176 z m 0,-3.10047 c 0.2292434,-0.11695 0.4120334,-0.41466 0.4120334,-0.67107 0,-0.24786 -0.1720814,-0.52994 -0.4021803,-0.65926 L 8.422119,304.98515 H 3.604625 c -4.811133,0 -4.8177519,1.5e-4 -5.0122173,0.10944 -0.2256888,0.12684 -0.4136056,0.42755 -0.4136056,0.66185 0,0.25199 0.1816573,0.55654 0.4010475,0.67237 0.1882742,0.0994 0.3163652,0.10207 5.0139164,0.10429 4.7317999,0.002 4.8244664,3.9e-4 5.0246484,-0.10176 z m -0.7371542,-6.25515 c -0.118394,-0.0625 -0.2336377,-0.18125 -0.2976119,-0.30665 -0.1011622,-0.19829 -0.1039863,-0.28402 -0.091,-2.76383 l 0.013398,-2.55919 2.8677607,2.86813 2.86776,2.86812 -2.58355,-0.002 c -2.4701231,-0.002 -2.5920326,-0.007 -2.7767601,-0.1043 z"
       id="path943"
       inkscape:connector-curvature="0" />
  </g>
</svg>
