<?xml version="1.0" encoding="UTF-8" standalone="no"?>
<!-- Created with Inkscape (http://www.inkscape.org/) -->

<svg
   xmlns:dc="http://purl.org/dc/elements/1.1/"
   xmlns:cc="http://creativecommons.org/ns#"
   xmlns:rdf="http://www.w3.org/1999/02/22-rdf-syntax-ns#"
   xmlns:svg="http://www.w3.org/2000/svg"
   xmlns="http://www.w3.org/2000/svg"
   xmlns:sodipodi="http://sodipodi.sourceforge.net/DTD/sodipodi-0.dtd"
   xmlns:inkscape="http://www.inkscape.org/namespaces/inkscape"
   width="100"
   height="99.400002"
   viewBox="0 0 26.458337 26.299585"
   version="1.1"
   id="svg8"
   sodipodi:docname="6.svg"
   inkscape:version="0.92.4 (5da689c313, 2019-01-14)">
  <defs
     id="defs2" />
  <sodipodi:namedview
     id="base"
     pagecolor="#ffffff"
     bordercolor="#666666"
     borderopacity="1.0"
     inkscape:pageopacity="0.0"
     inkscape:pageshadow="2"
     inkscape:zoom="2.8"
     inkscape:cx="-20.606059"
     inkscape:cy="67.204812"
     inkscape:document-units="mm"
     inkscape:current-layer="layer1"
     showgrid="false"
     fit-margin-top="-0.3"
     fit-margin-left="0"
     fit-margin-right="0"
     fit-margin-bottom="-0.3"
     units="px"
     inkscape:window-width="1600"
     inkscape:window-height="837"
     inkscape:window-x="-8"
     inkscape:window-y="-8"
     inkscape:window-maximized="1" />
  <metadata
     id="metadata5">
    <rdf:RDF>
      <cc:Work
         rdf:about="">
        <dc:format>image/svg+xml</dc:format>
        <dc:type
           rdf:resource="http://purl.org/dc/dcmitype/StillImage" />
        <dc:title></dc:title>
      </cc:Work>
    </rdf:RDF>
  </metadata>
  <g
     inkscape:label="Layer 1"
     inkscape:groupmode="layer"
     id="layer1"
     transform="translate(-59.959969,-356.46977)">
    <path
       inkscape:connector-curvature="0"
       style="fill:#1575b3;fill-opacity:1;stroke:none;stroke-width:1"
       d="m 62.207893,382.78868 c -0.401984,-0.0768 -0.971961,-0.37742 -1.311512,-0.69178 -0.361473,-0.33466 -0.590818,-0.67473 -0.776215,-1.15097 l -0.134359,-0.34513 -0.0137,-9.88463 c -0.01523,-10.9909 -0.03911,-10.21666 0.337217,-10.93512 0.350848,-0.66982 1.024721,-1.20361 1.769766,-1.40188 0.241177,-0.0642 1.187852,-0.0756 6.299594,-0.0761 l 6.015764,-5.8e-4 0.224252,0.13142 c 0.28048,0.16437 0.441336,0.45886 0.43867,0.8031 -0.0029,0.38108 -0.247522,0.74048 -0.59261,0.87086 -0.09959,0.0376 -1.990199,0.0553 -5.994466,0.0561 -5.600894,10e-4 -5.858014,0.005 -6.061697,0.0977 -0.116987,0.0531 -0.279768,0.18452 -0.361735,0.29198 l -0.14903,0.19538 -0.01332,9.76565 -0.01332,9.76566 0.124523,0.21248 c 0.06973,0.11898 0.215124,0.2634 0.330414,0.3282 l 0.205889,0.11571 h 8.767605 c 7.446431,0 8.788632,-0.011 8.907148,-0.0729 0.187363,-0.0979 0.40482,-0.33361 0.472152,-0.51182 0.0374,-0.099 0.05506,-1.6925 0.05525,-4.98678 1.96e-4,-3.25362 0.01826,-4.90605 0.05512,-5.03874 0.07124,-0.25657 0.367517,-0.58161 0.600088,-0.65837 0.399808,-0.13195 0.849865,0.0341 1.106166,0.4081 l 0.124531,0.18172 0.01393,4.97615 c 0.01195,4.27263 0.0029,5.02934 -0.06402,5.35232 -0.196883,0.95023 -0.873711,1.73209 -1.8165,2.09839 l -0.355494,0.13812 -8.965861,0.008 c -5.513984,0.005 -9.065339,-0.0114 -9.224243,-0.0418 z"
       id="path962" />
    <path
       inkscape:connector-curvature="0"
       style="fill:#1575b3;fill-opacity:1;stroke:none;stroke-width:1"
       d="m 66.186979,377.09107 c -0.324275,-0.14474 -0.542603,-0.4857 -0.542603,-0.84737 0,-0.10912 0.421552,-1.459 0.987399,-3.16182 l 0.9874,-2.9714 6.54444,-6.54441 6.544441,-6.54441 0.490926,-0.23667 c 1.084217,-0.52269 2.113846,-0.52174 3.20394,0.003 0.413744,0.19915 0.560816,0.30631 0.935478,0.6816 0.371174,0.37181 0.483956,0.52634 0.683262,0.93624 0.524647,1.07898 0.525307,2.11851 0.002,3.20394 l -0.23667,0.49092 -6.544408,6.54444 -6.544411,6.54444 -2.971397,0.9874 c -1.933357,0.64246 -3.043609,0.98669 -3.178101,0.98538 -0.113686,-10e-4 -0.276465,-0.0332 -0.361731,-0.0712 z"
       id="path960" />
    <path
       inkscape:connector-curvature="0"
       style="fill:#1575b3;fill-opacity:1;stroke:none;stroke-width:1"
       d="m 69.972473,374.11046 1.770112,-0.58832 6.242532,-6.25336 c 4.955725,-4.96431 6.268584,-6.30661 6.368924,-6.51173 0.107322,-0.21939 0.126279,-0.33246 0.125629,-0.74931 -5.86e-4,-0.42972 -0.01773,-0.52314 -0.136961,-0.74931 -0.183895,-0.34886 -0.475668,-0.63239 -0.818287,-0.79515 -0.237225,-0.1127 -0.356852,-0.13502 -0.723471,-0.13502 -0.820311,0 -0.23207,-0.52604 -7.261043,6.49318 l -6.253353,6.24467 -0.588321,1.77011 c -0.323576,0.97356 -0.600625,1.80322 -0.615665,1.84368 -0.01779,0.0479 -0.0016,0.064 0.04622,0.0462 0.04046,-0.015 0.870118,-0.29209 1.84368,-0.61566 z"
       id="path956" />
  </g>
</svg>
