<?xml version="1.0" encoding="UTF-8" standalone="no"?>
<!-- Created with Inkscape (http://www.inkscape.org/) -->

<svg
   xmlns:dc="http://purl.org/dc/elements/1.1/"
   xmlns:cc="http://creativecommons.org/ns#"
   xmlns:rdf="http://www.w3.org/1999/02/22-rdf-syntax-ns#"
   xmlns:svg="http://www.w3.org/2000/svg"
   xmlns="http://www.w3.org/2000/svg"
   xmlns:sodipodi="http://sodipodi.sourceforge.net/DTD/sodipodi-0.dtd"
   xmlns:inkscape="http://www.inkscape.org/namespaces/inkscape"
   width="101.16324"
   height="99.400002"
   viewBox="0 0 26.766111 26.299585"
   version="1.1"
   id="svg8"
   sodipodi:docname="7.svg"
   inkscape:version="0.92.4 (5da689c313, 2019-01-14)">
  <defs
     id="defs2" />
  <sodipodi:namedview
     id="base"
     pagecolor="#ffffff"
     bordercolor="#666666"
     borderopacity="1.0"
     inkscape:pageopacity="0.0"
     inkscape:pageshadow="2"
     inkscape:zoom="0.49497475"
     inkscape:cx="243.40455"
     inkscape:cy="-20.048373"
     inkscape:document-units="mm"
     inkscape:current-layer="layer1"
     showgrid="false"
     fit-margin-top="-0.3"
     fit-margin-left="0"
     fit-margin-right="0"
     fit-margin-bottom="-0.3"
     units="px"
     inkscape:window-width="1600"
     inkscape:window-height="837"
     inkscape:window-x="-8"
     inkscape:window-y="-8"
     inkscape:window-maximized="1" />
  <metadata
     id="metadata5">
    <rdf:RDF>
      <cc:Work
         rdf:about="">
        <dc:format>image/svg+xml</dc:format>
        <dc:type
           rdf:resource="http://purl.org/dc/dcmitype/StillImage" />
        <dc:title></dc:title>
      </cc:Work>
    </rdf:RDF>
  </metadata>
  <g
     inkscape:label="Layer 1"
     inkscape:groupmode="layer"
     id="layer1"
     transform="translate(-13.452272,-299.36618)">
    <g
       id="g1544"
       style="fill:#1575b3;fill-opacity:1;stroke-width:4.46361971"
       transform="matrix(0.22403341,0,0,0.22403341,10.438514,252.76734)">
      <path
         inkscape:connector-curvature="0"
         id="path1537"
         d="m 78.613099,325.51237 c 1.45521,-0.13994 3.50903,-0.39821 4.56406,-0.57394 l 1.91823,-0.31949 v -9.95398 c 0,-6.05911 -0.11295,-10.565 -0.28867,-11.51553 -0.36501,-1.97452 -0.92431,-3.0783 -3.14596,-6.20855 -2.281,-3.21388 -4.24253,-6.16936 -4.15359,-6.25831 0.0381,-0.0381 1.90986,-0.36655 4.15947,-0.72989 4.87896,-0.78803 6.87856,-1.23669 9.67094,-2.16993 7.459454,-2.49301 13.332901,-7.63639 16.192381,-14.17964 1.30015,-2.97509 1.77093,-5.65613 1.75593,-9.99973 -0.0124,-3.60355 -0.10109,-4.42201 -0.73071,-6.74687 -0.87708,-3.23863 -2.41765,-6.53325 -4.14363,-8.86148 -2.01399,-2.71672 -2.21962,-3.68201 -1.42954,-6.71075 0.47266,-1.81195 0.63666,-7.18474 0.28274,-9.26295 l -0.21922,-1.28727 -1.08532,0.17355 c -1.57545,0.25193 -4.689197,1.68884 -8.150397,3.76119 -1.664244,0.99644 -3.383074,1.97069 -3.819634,2.165 -1.05764,0.47074 -3.41189,0.27931 -7.40833,-0.60239 -2.40472,-0.53053 -4.2408,-0.73845 -7.56808,-0.857 -4.86652,-0.17339 -7.89297,0.0997 -12.509674,1.12873 -3.2071,0.71486 -5.0193,0.80607 -6.15177,0.30964 -0.41689,-0.18275 -2.06767,-1.11323 -3.668396,-2.06773 -1.60074,-0.95451 -3.69168,-2.09792 -4.64654,-2.54092 -1.82693,-0.8476 -4.37551,-1.6034 -4.61138,-1.36753 -0.0765,0.0765 -0.26508,1.14031 -0.41898,2.36391 -0.31186,2.47957 -0.12591,5.9504 0.44018,8.21606 0.72791,2.91333 0.50617,3.89861 -1.48049,6.57846 -1.72598,2.32823 -3.26655,5.62285 -4.14363,8.86148 -0.62962,2.32486 -0.71826,3.14332 -0.73071,6.74687 -0.015,4.3436 0.45578,7.02464 1.75593,9.99973 2.85948,6.54325 8.73294,11.68663 16.192386,14.17964 2.79238,0.93324 4.79198,1.3819 9.670944,2.16993 2.24961,0.36334 4.12137,0.6918 4.15947,0.72989 0.0889,0.089 -1.87259,3.04443 -4.15359,6.25831 -2.277104,3.20837 -2.819924,4.30605 -3.157124,6.38419 -0.15276,0.94141 -0.2744,6.01587 -0.27551,11.49366 l -0.002,9.80805 2.12088,0.34443 c 4.824124,0.78342 10.565754,0.98771 15.209334,0.54116 z"
         style="fill:#1575b3;fill-opacity:1;stroke-width:4.46361971" />
      <path
         inkscape:connector-curvature="0"
         id="path1532"
         d="m 53.331587,318.27674 v -5.38843 l -1.12448,0.21754 c -4.668378,0.90311 -10.467898,-0.86399 -13.857728,-4.22242 -0.87671,-0.86859 -2.18006,-2.45217 -2.89633,-3.51907 -0.71627,-1.06689 -1.83841,-2.52286 -2.49365,-3.23548 -1.20497,-1.3105 -3.34065,-2.53346 -4.4325,-2.5382 -0.32742,-0.001 -0.60075,-0.15141 -0.6074,-0.33331 -0.007,-0.18191 -0.16126,-1.96784 -0.34358,-3.96875 l -0.3315,-3.63802 h 1.21404 c 1.59456,0 4.04308,0.64635 5.69084,1.50225 2.99962,1.5581 5.19751,3.7309 8.01252,7.92108 1.20587,1.79495 2.23226,2.75363 3.86291,3.60808 1.30446,0.68354 4.68252,0.77563 6.360398,0.1734 1.01119,-0.36293 1.04744,-0.42022 1.40804,-2.22461 0.20357,-1.01864 0.65509,-2.56068 1.00339,-3.42675 0.34829,-0.86607 0.60764,-1.59763 0.57633,-1.62569 -0.0313,-0.0281 -1.17754,-0.42497 -2.54718,-0.88204 -12.749558,-4.25466 -20.910018,-13.2321 -23.345958,-25.68322 -0.50561,-2.58434 -0.42438,-9.94299 0.14018,-12.7 0.93714,-4.5765 2.451,-8.43495 4.66139,-11.88075 l 1.35257,-2.10854 -0.32065,-1.67046 c -0.47824,-2.49143 -0.41073,-8.93834 0.11811,-11.27778 0.87936,-3.8901 2.80728,-6.48669 5.34347,-7.19678 1.49651,-0.419 4.70811,-0.0311 7.43444,0.89783 2.05334,0.69965 5.690318,2.48024 8.697138,4.25792 l 2.02888,1.1995 1.49763,-0.38269 c 3.25763,-0.83242 6.459454,-1.24616 10.775334,-1.39238 5.06897,-0.17174 8.70827,0.12532 13.34418,1.08923 l 3.04271,0.63265 2.11667,-1.26747 c 6.830439,-4.09008 12.182079,-5.82189 15.616049,-5.0534 2.71146,0.6068 4.66843,3.1322 5.59148,7.21559 0.52884,2.33944 0.59635,8.78635 0.11811,11.27778 l -0.32065,1.67046 1.35257,2.10854 c 2.21039,3.4458 3.72425,7.30425 4.66139,11.88075 0.56456,2.75701 0.64578,10.11566 0.14018,12.7 -2.43594,12.45112 -10.5964,21.42856 -23.34596,25.68322 -1.369639,0.45707 -2.515869,0.85398 -2.547179,0.88204 -0.0313,0.0281 0.24849,0.80714 0.62176,1.73129 1.19078,2.94805 1.41743,5.38837 1.41853,15.27282 l 0.001,9.04124 2.315099,-0.931 c 25.65974,-10.31894 40.92014,-36.62916 36.97378,-63.74598 -1.47686,-10.14802 -5.49156,-19.51059 -12.12765,-28.28259 -2.20744,-2.91793 -7.98824,-8.62846 -11.04545,-10.91118 -8.30453,-6.20073 -17.494769,-10.08628 -27.492909,-11.62373 -4.19695,-0.64538 -12.73639,-0.64538 -16.93334,0 -12.881442,1.98083 -24.246312,7.74011 -33.483642,16.96825 -6.48642,6.47995 -11.18034,13.78093 -14.27234,22.19935 -4.19364,11.41781 -4.63957,24.69759 -1.2273,36.54856 4.42003,15.35094 15.15699,28.54243 29.34438,36.05263 2.1155,1.11986 7.300588,3.49118 8.195678,3.74817 0.0364,0.0104 0.0661,-2.40581 0.0661,-5.36945 z"
         style="fill:#1575b3;fill-opacity:1;stroke-width:4.46361971" />
    </g>
  </g>
</svg>
