<?xml version="1.0" encoding="UTF-8" standalone="no"?>
<svg
   xmlns:dc="http://purl.org/dc/elements/1.1/"
   xmlns:cc="http://creativecommons.org/ns#"
   xmlns:rdf="http://www.w3.org/1999/02/22-rdf-syntax-ns#"
   xmlns:svg="http://www.w3.org/2000/svg"
   xmlns="http://www.w3.org/2000/svg"
   xmlns:sodipodi="http://sodipodi.sourceforge.net/DTD/sodipodi-0.dtd"
   xmlns:inkscape="http://www.inkscape.org/namespaces/inkscape"
   height="500"
   viewBox="0 0 58.59375 57.617188"
   width="500"
   version="1.1"
   id="svg23"
   sodipodi:docname="icon-s1-1.svg"
   inkscape:version="0.92.4 (5da689c313, 2019-01-14)">
  <metadata
     id="metadata29">
    <rdf:RDF>
      <cc:Work
         rdf:about="">
        <dc:format>image/svg+xml</dc:format>
        <dc:type
           rdf:resource="http://purl.org/dc/dcmitype/StillImage" />
        <dc:title></dc:title>
      </cc:Work>
    </rdf:RDF>
  </metadata>
  <defs
     id="defs27" />
  <sodipodi:namedview
     pagecolor="#ffffff"
     bordercolor="#666666"
     borderopacity="1"
     objecttolerance="10"
     gridtolerance="10"
     guidetolerance="10"
     inkscape:pageopacity="0"
     inkscape:pageshadow="2"
     inkscape:window-width="1600"
     inkscape:window-height="837"
     id="namedview25"
     showgrid="false"
     inkscape:zoom="0.4609375"
     inkscape:cx="176.44936"
     inkscape:cy="251.73334"
     inkscape:window-x="-8"
     inkscape:window-y="-8"
     inkscape:window-maximized="1"
     inkscape:current-layer="svg23"
     fit-margin-top="0"
     fit-margin-left="0"
     fit-margin-right="0"
     fit-margin-bottom="0" />
  <g
     id="Page-1"
     style="fill:#1575b3;fill-opacity:1;fill-rule:evenodd;stroke-width:1.00952625"
     transform="matrix(0.99056362,0,0,0.99056362,-0.41993743,-0.41303279)">
    <g
       id="026---Idea"
       style="fill:#1575b3;fill-opacity:1;fill-rule:nonzero;stroke-width:1.00952625">
      <path
         id="Shape"
         d="M 55.143,30.953 C 54.962272,30.011418 54.13877,29.33055 53.18,29.33 h -1.931 l -0.142,-0.851 c -0.141662,-0.854748 -0.815091,-1.522534 -1.671,-1.657 -0.19,-0.03 -0.382,-0.05 -0.571,-0.076 0.327469,-1.528806 0.05541,-3.124989 -0.76,-4.459 0.430817,-1.117526 0.350409,-2.367696 -0.220019,-3.420824 C 47.314552,17.813048 46.311375,17.062696 45.14,16.813 44.391109,12.804985 40.904305,9.8915558 36.827,9.867 c -0.1,0 -0.189,0.013 -0.284,0.016 C 35.891496,8.8598471 34.817399,8.1807991 33.613702,8.0310866 32.410005,7.881374 31.202291,8.2766165 30.32,9.109 29.208538,8.3865157 27.911643,8.0013372 26.586,8 24.450051,8.00874 22.437004,9.0001423 21.128,10.688 19.674532,10.264165 18.107193,10.524404 16.868686,11.395211 15.630179,12.266018 14.854962,13.652854 14.762,15.164 c -1.526663,0.641743 -2.520036,2.135941 -2.521,3.792 0.0031,0.287066 0.03665,0.572993 0.1,0.853 -1.350112,2.035327 -1.702901,4.573636 -0.959,6.9 -0.268,0.037 -0.542,0.07 -0.8,0.108 -0.8603529,0.129809 -1.5397852,0.797944 -1.684,1.656 L 8.756,29.327 H 6.82 c -0.9571508,6.58e-4 -1.7796629,0.679377 -1.962,1.619 L 0.479,53.428 C 0.30798539,54.308466 0.5398903,55.219263 1.1111472,55.910734 1.6824041,56.602205 2.5330816,57.001805 3.43,57 h 20.854 c 0.828,1.366 3.344,2 5.716,2 2.347,0 4.839,-0.619 5.691,-2 H 56.57 c 0.896706,0.0017 1.747179,-0.39772 2.318396,-1.088948 C 59.459613,55.219823 59.691675,54.309315 59.521,53.429 Z M 15.265,20.766 C 14.453062,20.277812 14.065562,19.308677 14.317085,18.395273 14.568609,17.48187 15.397605,16.847721 16.345,16.844 c 0.663042,-0.002 1.287058,0.313201 1.679,0.848 0.21293,0.286884 0.562737,0.438379 0.917651,0.397418 0.354914,-0.04096 0.661016,-0.268154 0.803,-0.596 C 19.886635,17.165573 19.84293,16.786884 19.63,16.5 c -0.67903,-0.907553 -1.708075,-1.488114 -2.836,-1.6 0.298142,-1.400479 1.533143,-2.403058 2.965,-2.407 0.122012,0.0062 0.243555,0.01954 0.364,0.04 -0.08045,0.205014 -0.150538,0.413945 -0.21,0.626 -0.124459,0.529349 0.196889,1.061128 0.723396,1.197106 0.526507,0.135978 1.065171,-0.173691 1.212604,-0.697106 0.113712,-0.439513 0.288408,-0.860938 0.519,-1.252 0.887049,-1.486059 2.487345,-2.399267 4.218,-2.407 0.941891,0.0042 1.86225,0.282119 2.649,0.8 -0.149879,0.421108 -0.229278,0.864052 -0.235,1.311 0,0.552285 0.447715,1 1,1 0.552285,0 1,-0.447715 1,-1 0,-1.161731 0.941769,-2.1035 2.1035,-2.1035 1.161731,0 2.1035,0.941769 2.1035,2.1035 0,0.552285 0.447715,1 1,1 0.552285,0 1,-0.447715 1,-1 0,-0.077 -0.019,-0.15 -0.023,-0.227 2.863344,0.176667 5.271128,2.212021 5.922,5.006 -0.466466,0.135806 -0.904755,0.354273 -1.294,0.645 -0.285813,0.214359 -0.435555,0.564915 -0.39282,0.919615 0.04273,0.354701 0.271453,0.659659 0.6,0.8 0.328547,0.140341 0.707007,0.09474 0.99282,-0.119615 0.799109,-0.591646 1.902985,-0.544462 2.648691,0.113217 0.745707,0.657679 0.930462,1.747006 0.443309,2.613783 -0.217683,0.382746 -0.548483,0.688745 -0.947,0.876 -0.417916,0.202349 -0.641569,0.665749 -0.539984,1.118827 0.101585,0.453078 0.501679,0.776627 0.965984,0.781173 0.146635,2.23e-4 0.291478,-0.03223 0.424,-0.095 0.265024,-0.128434 0.515464,-0.285001 0.747,-0.467 0.516923,1.469564 0.192716,3.104011 -0.846,4.265 l -0.024,0.025 c -1.302775,1.411278 -3.380986,1.792691 -5.1,0.936 C 40.615631,29.213073 40.45388,29.112146 40.3,29 c 0.736572,-1.032642 0.838302,-2.389042 0.264,-3.52 -0.16077,-0.319217 -0.479627,-0.528416 -0.836461,-0.548794 -0.356835,-0.02038 -0.697435,0.151161 -0.8935,0.45 -0.196066,0.298839 -0.217809,0.679577 -0.05704,0.998794 0.328822,0.660942 0.123727,1.463025 -0.482,1.885 -0.355708,0.236823 -0.795148,0.311725 -1.209224,0.206109 C 36.6717,28.365493 36.321821,28.089264 36.123,27.711 c -0.159876,-0.319574 -0.478099,-0.52958 -0.834796,-0.55091 -0.356698,-0.02133 -0.697679,0.149256 -0.8945,0.4475 -0.196822,0.298244 -0.21958,0.678836 -0.0597,0.99841 0.586468,1.183884 1.794821,1.931543 3.116,1.928 0.43012,-0.0029 0.855854,-0.0867 1.255,-0.247 0.357173,0.3127 0.750666,0.581296 1.172,0.8 1.425212,0.738753 3.082512,0.891961 4.619,0.427 -0.988227,1.349346 -2.467219,2.256207 -4.118,2.525 -0.513563,0.0836 -0.877199,0.547067 -0.836214,1.065775 0.04098,0.518707 0.472893,0.919311 0.993214,0.921225 0.05323,-1.7e-5 0.106375,-0.004 0.159,-0.012 0.608929,-0.105416 1.204024,-0.279181 1.774,-0.518 0.308057,0.544655 0.558094,1.120142 0.746,1.717 0.03441,0.104213 0.05197,0.213252 0.052,0.323 -2.52e-4,0.432207 -0.25839,0.822562 -0.656,0.992 -0.459976,0.177911 -0.982203,0.03755 -1.291,-0.347 -0.774453,-0.90944 -1.78856,-1.583317 -2.927,-1.945 -2.161,-0.724 -2.995,-1.371 -3.349,-2.075 0.518862,-0.06474 1.031568,-0.171762 1.533,-0.32 0.341546,-0.105036 0.601111,-0.384306 0.68092,-0.732612 0.07981,-0.348305 -0.03226,-0.71273 -0.294,-0.956 C 36.701183,31.909119 36.329546,31.823964 35.988,31.929 c -0.561116,0.172151 -1.140332,0.278531 -1.726,0.317 -1.12834,0.08819 -2.261905,-0.08284 -3.314,-0.5 -0.395028,-0.154061 -0.84427,-0.04225 -1.121,0.279 -1.455963,1.672454 -3.947857,1.956715 -5.743082,0.655139 C 22.288694,31.378562 21.78411,28.921789 22.921,27.018 c 0.18417,-0.307427 0.190341,-0.689755 0.01619,-1.002965 -0.174154,-0.31321 -0.502175,-0.509717 -0.8605,-0.5155 C 21.718361,25.493735 21.38417,25.679573 21.2,25.987 20.961414,26.393059 20.769527,26.824804 20.628,27.274 19.840519,27.23257 19.219579,26.58847 19.207,25.8 V 25.775 C 19.206483,25.511131 19.100541,25.258409 18.91274,25.07305 18.724939,24.887691 18.470854,24.785065 18.207,24.788 c -0.554679,0.0055 -1.001126,0.457295 -1,1.012 0.0045,1.773467 1.341854,3.259899 3.105,3.451 0.0036,0.335228 0.03402,0.669631 0.091,1 -2.232793,0.483135 -4.548618,-0.319446 -6.003612,-2.080632 C 12.944395,26.409182 12.593223,23.983515 13.489,21.882 c 0.223722,0.226343 0.473461,0.425396 0.744,0.593 0.472397,0.276723 1.079492,0.122134 1.362013,-0.346818 C 15.877534,21.65923 15.730436,21.050277 15.265,20.762 Z m -4.4,8.033 c 0.461,-0.068 0.937,-0.128 1.41,-0.19 1.848923,2.95463 5.38513,4.389274 8.77,3.558 0.9095,1.726166 2.571402,2.92996 4.495081,3.255997 1.923679,0.326037 3.889428,-0.262919 5.316919,-1.592997 0.67957,0.202697 1.379507,0.329471 2.087,0.378 0.483,1.832 1.879,2.942 4.812,3.925 0.790682,0.247881 1.496037,0.712459 2.036,1.341 0.6003,0.713834 1.483327,1.128667 2.416,1.135 0.407903,-1.34e-4 0.8116,-0.08244 1.187,-0.242 1.133544,-0.484441 1.868888,-1.598277 1.869,-2.831 9.19e-4,-0.321486 -0.05042,-0.640984 -0.152,-0.946 -0.224884,-0.70656 -0.521076,-1.388405 -0.884,-2.035 1.700472,-1.222425 2.885047,-3.034043 3.323,-5.082 0.212977,-0.253039 0.405579,-0.522548 0.576,-0.806 0.335,0.043 0.67,0.081 1.007,0.137 l 3.61,21.714 C 45.687506,48.161701 38.056494,48.161701 31,50.518 V 38 c 0,-0.552285 -0.447715,-1 -1,-1 -0.552285,0 -1,0.447715 -1,1 V 50.522 C 21.944302,48.163539 14.313431,48.160731 7.256,50.514 Z M 2.651,54.632 C 2.4620441,54.403749 2.3850177,54.102979 2.441,53.812 L 6.82,31.33 h 1.6 L 5.282,50.189 C 5.1716276,50.875439 5.42438,51.570104 5.9500657,52.025115 6.4757515,52.480125 7.1994808,52.630659 7.863,52.423 13.194004,50.695858 18.873453,50.335499 24.38,51.375 L 24.082,55 H 3.43 C 3.1283191,55.000214 2.842434,54.865162 2.651,54.632 Z M 30,57 c -2.409,0 -3.791,-0.712 -3.994,-1.029 l 0.344,-4.15 c 1.099577,0.27378 2.175637,0.634585 3.218,1.079 0.134804,0.06495 0.282366,0.09911 0.432,0.1 0.150031,-2.28e-4 0.298063,-0.03442 0.433,-0.1 1.041726,-0.447028 2.117477,-0.810181 3.217,-1.086 l 0.344,4.156 C 33.791,56.288 32.409,57 30,57 Z M 57.349,54.632 C 57.157566,54.865162 56.871681,55.000214 56.57,55 H 35.921 l -0.3,-3.632 c 5.509583,-1.037362 11.191496,-0.673904 16.524,1.057 0.663364,0.204921 1.385528,0.05225 1.909196,-0.403618 C 54.577865,51.565514 54.828574,50.871271 54.717,50.186 L 51.582,31.331 h 1.6 l 4.38,22.48 c 0.05547,0.291753 -0.02269,0.593014 -0.213,0.821 z"
         inkscape:connector-curvature="0"
         style="fill:#1575b3;fill-opacity:1;stroke-width:1.00952625" />
      <path
         id="path3"
         d="m 26.686,22.685 c -0.409355,0.370385 -0.441136,1.00242 -0.071,1.412 0.848305,0.936608 1.969421,1.583043 3.205,1.848 -0.559578,0.788558 -1.467072,1.256473 -2.434,1.255 -0.552285,0 -1,0.447715 -1,1 0,0.552285 0.447715,1 1,1 2.070157,0.0083 3.92763,-1.270323 4.659,-3.207 2.48654,-0.412076 4.455129,-2.326037 4.937,-4.8 0.07445,-0.353861 -0.04793,-0.720351 -0.320069,-0.958473 -0.272139,-0.238121 -0.651631,-0.310773 -0.992478,-0.190006 -0.340847,0.120768 -0.589942,0.41614 -0.651453,0.772479 -0.196087,1.031393 -0.791168,1.943779 -1.656,2.539 -1.663749,1.120541 -3.895093,0.866208 -5.264,-0.6 -0.370385,-0.409355 -1.00242,-0.441136 -1.412,-0.071 z"
         inkscape:connector-curvature="0"
         style="fill:#1575b3;fill-opacity:1;stroke-width:1.00952625" />
      <path
         id="path5"
         d="m 23.2,21.6 c 0.552285,0 1,-0.447715 1,-1 0,-0.689563 0.273928,-1.350883 0.761522,-1.838478 C 25.449117,18.273928 26.110437,18 26.8,18 c 0.552285,0 1,-0.447715 1,-1 0,-0.552285 -0.447715,-1 -1,-1 -2.539368,0.0028 -4.597244,2.060632 -4.6,4.6 0,0.265217 0.105357,0.51957 0.292893,0.707107 C 22.68043,21.494643 22.934784,21.6 23.2,21.6 Z"
         inkscape:connector-curvature="0"
         style="fill:#1575b3;fill-opacity:1;stroke-width:1.00952625" />
      <path
         id="path7"
         d="M 31,2 V 1 C 31,0.44771525 30.552285,0 30,0 29.447715,0 29,0.44771525 29,1 v 1 c 0,0.5522848 0.447715,1 1,1 0.552285,0 1,-0.4477152 1,-1 z"
         inkscape:connector-curvature="0"
         style="fill:#1575b3;fill-opacity:1;stroke-width:1.00952625" />
      <path
         id="path9"
         d="m 46.41,7.176 -1,1 c -0.259957,0.2510745 -0.364213,0.6228779 -0.272697,0.9725073 0.09151,0.3496295 0.36456,0.6226744 0.71419,0.7141899 C 46.201122,9.9542126 46.572925,9.8499566 46.824,9.59 l 1,-1 C 48.083957,8.3389255 48.188213,7.9671221 48.096697,7.6174927 48.005182,7.2678632 47.732137,6.9948183 47.382507,6.9033028 47.032878,6.8117874 46.661074,6.9160434 46.41,7.176 Z"
         inkscape:connector-curvature="0"
         style="fill:#1575b3;fill-opacity:1;stroke-width:1.00952625" />
      <path
         id="path11"
         d="M 13.883,9.883 C 14.287396,9.8829136 14.651934,9.6392725 14.806678,9.2656546 14.961422,8.8920366 14.875908,8.4619943 14.59,8.176 l -1,-1 C 13.338926,6.9160434 12.967122,6.8117874 12.617493,6.9033028 12.267863,6.9948183 11.994818,7.2678632 11.903303,7.6174927 11.811787,7.9671221 11.916043,8.3389255 12.176,8.59 l 1,1 c 0.187493,0.1875494 0.441805,0.2929434 0.707,0.293 z"
         inkscape:connector-curvature="0"
         style="fill:#1575b3;fill-opacity:1;stroke-width:1.00952625" />
      <path
         id="path13"
         d="M 21.581,5.675 C 21.712385,5.6747188 21.842463,5.6489069 21.964,5.599 22.209101,5.4974718 22.403813,5.3027091 22.505278,5.0575816 22.606742,4.8124541 22.606642,4.5370539 22.505,4.292 L 21.356,1.52 C 21.224381,1.1823759 20.92041,0.94237365 20.561463,0.89266774 20.202516,0.84296183 19.844765,0.99133078 19.626351,1.2804834 19.407938,1.5696361 19.363042,1.9543225 19.509,2.286 l 1.148,2.772 c 0.154896,0.3735907 0.519571,0.6171018 0.924,0.617 z"
         inkscape:connector-curvature="0"
         style="fill:#1575b3;fill-opacity:1;stroke-width:1.00952625" />
      <path
         id="path15"
         d="M 39.95,0.979 C 39.439965,0.76800246 38.855427,1.0101428 38.644,1.52 L 37.495,4.292 C 37.393045,4.537169 37.39278,4.8128209 37.494265,5.0581852 37.59575,5.3035495 37.790651,5.4984792 38.036,5.6 c 0.121537,0.049907 0.251615,0.075719 0.383,0.076 0.404429,1.018e-4 0.769104,-0.2434093 0.924,-0.617 L 40.491,2.287 C 40.592956,2.0418309 40.59322,1.766179 40.491735,1.5208148 40.390251,1.2754505 40.195349,1.0805208 39.95,0.979 Z"
         inkscape:connector-curvature="0"
         style="fill:#1575b3;fill-opacity:1;stroke-width:1.00952625" />
      <path
         id="path17"
         d="m 50.325,17.582 c 0.131487,-2.37e-4 0.261637,-0.0264 0.383,-0.077 l 2.771,-1.148 c 0.330113,-0.136654 0.562247,-0.439041 0.608958,-0.793255 0.04671,-0.354213 -0.0991,-0.70644 -0.3825,-0.924 C 53.422055,14.422186 53.044113,14.372346 52.714,14.509 l -2.772,1.148 c -0.442339,0.181696 -0.694135,0.651132 -0.60082,1.120141 0.09331,0.469009 0.505621,0.806315 0.98382,0.804859 z"
         inkscape:connector-curvature="0"
         style="fill:#1575b3;fill-opacity:1;stroke-width:1.00952625" />
      <path
         id="path19"
         d="m 9.292,17.505 c 0.5103111,0.211525 1.095475,-0.03069 1.307,-0.541 0.211525,-0.510311 -0.03069,-1.095475 -0.541,-1.307 L 7.286,14.509 C 6.7756889,14.297751 6.1907489,14.54019 5.9795,15.0505 5.7682511,15.560811 6.010689,16.145751 6.521,16.357 Z"
         inkscape:connector-curvature="0"
         style="fill:#1575b3;fill-opacity:1;stroke-width:1.00952625" />
    </g>
  </g>
</svg>
