<?xml version="1.0" encoding="UTF-8" standalone="no"?>
<svg
   xmlns:dc="http://purl.org/dc/elements/1.1/"
   xmlns:cc="http://creativecommons.org/ns#"
   xmlns:rdf="http://www.w3.org/1999/02/22-rdf-syntax-ns#"
   xmlns:svg="http://www.w3.org/2000/svg"
   xmlns="http://www.w3.org/2000/svg"
   xmlns:sodipodi="http://sodipodi.sourceforge.net/DTD/sodipodi-0.dtd"
   xmlns:inkscape="http://www.inkscape.org/namespaces/inkscape"
   height="500"
   viewBox="0 0 62.5 62.5"
   width="500"
   version="1.1"
   id="svg19"
   sodipodi:docname="icon-s1-2.svg"
   inkscape:version="0.92.4 (5da689c313, 2019-01-14)">
  <metadata
     id="metadata25">
    <rdf:RDF>
      <cc:Work
         rdf:about="">
        <dc:format>image/svg+xml</dc:format>
        <dc:type
           rdf:resource="http://purl.org/dc/dcmitype/StillImage" />
        <dc:title></dc:title>
      </cc:Work>
    </rdf:RDF>
  </metadata>
  <defs
     id="defs23" />
  <sodipodi:namedview
     pagecolor="#ffffff"
     bordercolor="#666666"
     borderopacity="1"
     objecttolerance="10"
     gridtolerance="10"
     guidetolerance="10"
     inkscape:pageopacity="0"
     inkscape:pageshadow="2"
     inkscape:window-width="1600"
     inkscape:window-height="837"
     id="namedview21"
     showgrid="false"
     fit-margin-top="0"
     fit-margin-left="0"
     fit-margin-right="0"
     fit-margin-bottom="0"
     inkscape:zoom="0.4609375"
     inkscape:cx="240"
     inkscape:cy="240"
     inkscape:window-x="-8"
     inkscape:window-y="-8"
     inkscape:window-maximized="1"
     inkscape:current-layer="svg19" />
  <g
     id="Application"
     transform="matrix(1.0416667,0,0,1.0416667,-2.0833334,-2.0833334)"
     style="stroke-width:0.95999998;fill:#1575b3;fill-opacity:1">
    <path
       d="m 25,44 h 14 v 2 H 25 Z"
       id="path2"
       inkscape:connector-curvature="0"
       style="stroke-width:0.95999998;fill:#1575b3;fill-opacity:1" />
    <path
       d="m 21,44 h 2 v 2 h -2 z"
       id="path4"
       inkscape:connector-curvature="0"
       style="stroke-width:0.95999998;fill:#1575b3;fill-opacity:1" />
    <path
       d="M 61,6 H 47 V 5 A 3.009,3.009 0 0 0 44,2 H 20 A 3.009,3.009 0 0 0 17,5 V 9 H 3 a 1,1 0 0 0 -1,1 v 12 a 1,1 0 0 0 1,1 h 14 v 2 a 5,5 0 0 0 -5,5 v 4.09 l 2,20.95 V 61 a 1,1 0 0 0 1,1 h 22 a 1,1 0 0 0 1,-1 V 55.32 L 41.72,50 H 44 a 3.009,3.009 0 0 0 3,-3 v -1 h 1 a 3.985,3.985 0 0 0 2.62,-7 3.951,3.951 0 0 0 0,-6 3.951,3.951 0 0 0 0,-6 A 3.985,3.985 0 0 0 48,20 h -1 v -2 h 14 a 1,1 0 0 0 1,-1 V 7 A 1,1 0 0 0 61,6 Z M 39.72,4 39.41,5.24 A 1,1 0 0 1 38.44,6 H 25.56 A 1,1 0 0 1 24.59,5.24 L 24.28,4 Z M 4,21 V 11 H 22 V 21 Z M 36,60 H 16 v -4 h 20 z m 0.48,-6 H 15.91 L 14,34 v -4 a 3.009,3.009 0 0 1 3,-3 h 7 a 3,3 0 0 1 0,6 h -6 a 1,1 0 0 0 -1,1 v 13 a 3.009,3.009 0 0 0 3,3 H 39.28 Z M 45,47 a 1,1 0 0 1 -1,1 H 20 A 1,1 0 0 1 19,47 V 35 h 5 a 5,5 0 0 0 0,-10 h -5 v -2 h 4 a 1,1 0 0 0 1,-1 V 10 A 1,1 0 0 0 23,9 H 19 V 5 a 1,1 0 0 1 1,-1 h 2.22 l 0.43,1.73 A 3,3 0 0 0 25.56,8 H 38.44 A 3,3 0 0 0 41.35,5.73 L 41.78,4 H 44 a 1,1 0 0 1 1,1 v 1 h -2 a 1,1 0 0 0 -1,1 v 10 a 1,1 0 0 0 1,1 h 2 v 2 h -1 a 3.985,3.985 0 0 0 -2.62,7 3.951,3.951 0 0 0 0,6 3.951,3.951 0 0 0 0,6 3.985,3.985 0 0 0 2.62,7 h 1 z m 3,-3 h -4 a 2,2 0 0 1 0,-4 h 4 a 2,2 0 0 1 0,4 z m 0,-6 h -4 a 2,2 0 0 1 0,-4 h 4 a 2,2 0 0 1 0,4 z m 0,-6 h -4 a 2,2 0 0 1 0,-4 h 4 a 2,2 0 0 1 0,4 z m 0,-10 a 2,2 0 0 1 0,4 h -4 a 2,2 0 0 1 0,-4 z M 60,16 H 44 V 8 h 16 z"
       id="path6"
       inkscape:connector-curvature="0"
       style="stroke-width:0.95999998;fill:#1575b3;fill-opacity:1" />
    <path
       d="m 6,13 h 2 v 2 H 6 Z"
       id="path8"
       inkscape:connector-curvature="0"
       style="stroke-width:0.95999998;fill:#1575b3;fill-opacity:1" />
    <path
       d="m 10,13 h 10 v 2 H 10 Z"
       id="path10"
       inkscape:connector-curvature="0"
       style="stroke-width:0.95999998;fill:#1575b3;fill-opacity:1" />
    <path
       d="m 6,17 h 14 v 2 H 6 Z"
       id="path12"
       inkscape:connector-curvature="0"
       style="stroke-width:0.95999998;fill:#1575b3;fill-opacity:1" />
    <path
       d="m 46,11 h 4 v 2 h -4 z"
       id="path14"
       inkscape:connector-curvature="0"
       style="stroke-width:0.95999998;fill:#1575b3;fill-opacity:1" />
    <path
       d="m 52,11 h 6 v 2 h -6 z"
       id="path16"
       inkscape:connector-curvature="0"
       style="stroke-width:0.95999998;fill:#1575b3;fill-opacity:1" />
  </g>
</svg>
