<?xml version="1.0" encoding="UTF-8" standalone="no"?>
<!-- Generator: Adobe Illustrator 19.0.0, SVG Export Plug-In . SVG Version: 6.00 Build 0)  -->

<svg
   xmlns:dc="http://purl.org/dc/elements/1.1/"
   xmlns:cc="http://creativecommons.org/ns#"
   xmlns:rdf="http://www.w3.org/1999/02/22-rdf-syntax-ns#"
   xmlns:svg="http://www.w3.org/2000/svg"
   xmlns="http://www.w3.org/2000/svg"
   xmlns:sodipodi="http://sodipodi.sourceforge.net/DTD/sodipodi-0.dtd"
   xmlns:inkscape="http://www.inkscape.org/namespaces/inkscape"
   version="1.1"
   id="Layer_1"
   x="0px"
   y="0px"
   viewBox="0 0 500.13395 500"
   xml:space="preserve"
   sodipodi:docname="icon-s1-3.svg"
   width="500.13394"
   height="500"
   inkscape:version="0.92.4 (5da689c313, 2019-01-14)"><metadata
   id="metadata63"><rdf:RDF><cc:Work
       rdf:about=""><dc:format>image/svg+xml</dc:format><dc:type
         rdf:resource="http://purl.org/dc/dcmitype/StillImage" /><dc:title></dc:title></cc:Work></rdf:RDF></metadata><defs
   id="defs61" /><sodipodi:namedview
   pagecolor="#ffffff"
   bordercolor="#666666"
   borderopacity="1"
   objecttolerance="10"
   gridtolerance="10"
   guidetolerance="10"
   inkscape:pageopacity="0"
   inkscape:pageshadow="2"
   inkscape:window-width="1600"
   inkscape:window-height="837"
   id="namedview59"
   showgrid="false"
   fit-margin-top="0"
   fit-margin-left="0"
   fit-margin-right="0"
   fit-margin-bottom="0"
   inkscape:zoom="0.4609375"
   inkscape:cx="210.43555"
   inkscape:cy="65.972926"
   inkscape:window-x="-8"
   inkscape:window-y="-8"
   inkscape:window-maximized="1"
   inkscape:current-layer="Layer_1" />




<g
   id="g883"
   transform="scale(1.244628)"
   style="stroke-width:0.80345291"><path
     id="path18"
     d="m 342.95801,58.805664 c -2.8252,-2.824219 -5.7168,-5.553711 -8.59864,-8.113281 -4.09667,-3.637696 -8.38085,-7.141602 -12.73144,-10.41211 -4.33496,-3.263672 -8.77539,-6.336914 -13.30957,-9.216797 C 276.5752,10.905273 240.16211,0.21972656 202.03223,0.00878906 c -0.0615,-0.00195312 -0.1211,-0.00390625 -0.18164,-0.00585937 0,0 -9.8e-4,0 -0.002,0 -0.0361,-9.7657e-4 -0.0732,9.7656e-4 -0.10937,0 C 201.69042,0.00195312 201.64252,0 201.59371,0 h -0.56055 c -0.0195,0 -0.0381,0.00292969 -0.0566,0.00292969 -0.04,0 -0.0801,0 -0.12011,0 C 200.83695,0.00292969 200.81935,0 200.79985,0 h -0.56054 c -0.0479,0 -0.0957,0.00195312 -0.14453,0.00292969 -0.0371,9.7656e-4 -0.0752,-9.7657e-4 -0.11231,0 h -9.7e-4 c -0.0576,0.00195312 -0.11622,0.00390625 -0.17579,0.00585937 C 179.53906,0.11523437 159.80957,3.1669922 141.01562,9.0097657 117.46094,16.332031 95.379883,28.040039 75.571289,43.866211 c -9.77e-4,9.76e-4 -9.77e-4,9.76e-4 -9.77e-4,9.76e-4 l -0.0029,0.0029 c 0,9.76e-4 -9.77e-4,9.76e-4 -9.77e-4,9.76e-4 -2.697265,2.152344 -5.419922,4.448243 -8.09082,6.82129 -2.886719,2.563476 -5.780274,5.292968 -8.595703,8.108398 C 28.485352,89.161133 8.9541016,127.53418 2.3984375,169.76562 0.80664063,179.96777 0,190.42871 0,200.8584 c 0,53.67871 20.910156,104.13183 58.876953,142.0625 2.74707,2.74414 5.635742,5.4707 8.598633,8.11132 2.632812,2.33887 5.357422,4.63282 8.091797,6.81446 33.163087,26.49707 72.693357,41.46191 114.881837,43.59277 0.33496,0.0176 0.66894,0.041 1.00488,0.0566 0.88867,0.041 1.78027,0.0654 2.67188,0.0947 0.53125,0.0176 1.06152,0.043 1.59375,0.0566 0.65429,0.0166 1.31152,0.0195 1.96679,0.0293 0.77051,0.0127 1.54102,0.0312 2.31348,0.0342 0.30566,0.0117 0.61621,0.0156 0.91797,0.0156 0.30273,0 0.6123,-0.004 0.91992,-0.0156 h 0.0332 c 6.81153,-0.0293 13.56934,-0.39454 20.25684,-1.08985 2.88184,-0.2998 5.74902,-0.66504 8.60352,-1.08691 32.91406,-4.8584 63.91406,-17.78711 90.89941,-38.09278 l 0.002,-9.7e-4 c 9.8e-4,-9.8e-4 9.8e-4,-9.8e-4 0.002,-9.8e-4 l 9.7e-4,-9.8e-4 c 4.39844,-3.30566 8.68164,-6.80859 12.73633,-10.41503 2.91797,-2.60059 5.80566,-5.32227 8.5918,-8.09961 28.68847,-28.6709 47.8291,-64.78223 55.35156,-104.42872 2.33594,-12.33398 3.51855,-24.99609 3.51855,-37.63378 0,-53.68555 -20.91015,-104.135744 -58.87597,-142.055666 z M 382.30273,200.8584 c 0,11.42187 -1.06933,22.86132 -3.17773,33.99707 -0.48535,2.55957 -1.03125,5.10156 -1.62402,7.62793 h -97.74121 c 0.0244,-0.31934 0.0488,-0.63184 0.0713,-0.93067 0.0703,-0.87304 0.13575,-1.74414 0.19825,-2.6084 0.0391,-0.51757 0.0801,-1.03027 0.11816,-1.5498 0.005,-0.0557 0.008,-0.11035 0.0117,-0.16504 l 0.0684,-1.10742 c 9.8e-4,-0.0127 0.002,-0.0244 0.003,-0.0371 0.0342,-0.42969 0.0625,-0.86426 0.0908,-1.29492 l 0.0137,-0.20508 c 0.12793,-1.98828 0.24609,-3.99121 0.34766,-5.97559 0.48535,-9.08203 0.73144,-18.41894 0.73144,-27.75 0,-9.33105 -0.24609,-18.66699 -0.7334,-27.79101 l -0.0557,-1.05371 c -0.0166,-0.38672 -0.0371,-0.76954 -0.0596,-1.15528 l -0.0107,-0.17968 c -0.0713,-1.18165 -0.14356,-2.35352 -0.22266,-3.54981 -0.0322,-0.53906 -0.0644,-1.07129 -0.0996,-1.51953 -0.003,-0.0488 -0.007,-0.0967 -0.01,-0.14551 h 23.63086 c 5.39355,0 9.76562,-4.37207 9.76562,-9.76562 0,-5.39356 -4.37207,-9.76563 -9.76562,-9.76563 h -25.35254 c -0.27832,-2.5625 -0.57032,-5.10254 -0.88282,-7.59082 -0.16894,-1.37207 -0.3457,-2.73633 -0.52734,-4.08008 -0.56836,-4.22265 -1.18262,-8.34765 -1.83301,-12.2998 -0.11914,-0.72949 -0.23926,-1.45996 -0.36621,-2.19434 l -0.16308,-0.94336 c -0.14258,-0.83105 -0.28516,-1.6582 -0.43067,-2.45898 l -0.40918,-2.27735 c -0.24316,-1.30468 -0.4873,-2.5996 -0.73926,-3.9248 -0.98046,-5.02832 -2.05566,-9.99512 -3.18261,-14.707029 -0.29297,-1.253906 -0.59473,-2.500977 -0.88379,-3.649414 -0.007,-0.02734 -0.0361,-0.148438 -0.0439,-0.176758 -0.31738,-1.261719 -0.63574,-2.514648 -0.96191,-3.755859 17.15234,-6.769531 33.16015,-15.923828 47.77246,-27.302735 1.87891,1.540039 3.73144,3.117188 5.54199,4.72461 2.59473,2.303711 5.2041,4.767578 7.76172,7.324219 34.27344,34.233396 53.14941,79.776366 53.14941,128.237306 z M 298.3457,353.83984 c -0.32031,0.20508 -0.64062,0.40918 -0.96191,0.61231 -1.19727,0.75488 -2.40039,1.5 -3.61231,2.22461 -0.1416,0.084 -0.28418,0.16601 -0.42578,0.25 -1.11035,0.66015 -2.22656,1.30566 -3.34765,1.94043 -0.31348,0.17773 -0.62696,0.35449 -0.94043,0.53027 -1.24024,0.69238 -2.48535,1.37402 -3.73926,2.03515 -0.12988,0.0684 -0.26074,0.13379 -0.39063,0.20313 -1.15722,0.60645 -2.32031,1.19824 -3.48828,1.77832 -0.30859,0.15332 -0.61718,0.30762 -0.92675,0.45898 -1.28028,0.62696 -2.56446,1.24317 -3.8584,1.83887 -0.11817,0.0547 -0.23731,0.10645 -0.3545,0.16016 -1.19921,0.5498 -2.40429,1.08203 -3.61328,1.60449 -0.30859,0.13379 -0.61816,0.2666 -0.92773,0.39844 -1.31348,0.55859 -2.63184,1.10449 -3.95703,1.63086 -0.11328,0.0449 -0.22754,0.0879 -0.34082,0.13183 -1.23242,0.48633 -2.47071,0.95606 -3.71387,1.41504 -0.31055,0.11426 -0.62109,0.22949 -0.93262,0.34278 -1.34082,0.48632 -2.68554,0.96093 -4.03711,1.41503 -0.12304,0.041 -0.24707,0.0801 -0.36914,0.1211 -1.24804,0.41601 -2.50097,0.8164 -3.75781,1.2041 -0.32129,0.0996 -0.64355,0.19922 -0.96582,0.29687 -1.35937,0.41211 -2.72168,0.81153 -4.09082,1.19141 -0.14258,0.0391 -0.28613,0.0762 -0.42871,0.11524 -1.24609,0.34179 -2.49707,0.66796 -3.75195,0.98339 -0.34375,0.0859 -0.68653,0.17286 -1.03028,0.25684 -1.36816,0.33496 -2.73926,0.6582 -4.11719,0.96094 -0.0371,0.008 -0.0742,0.0156 -0.1123,0.0234 0.0381,-0.0527 0.0771,-0.10449 0.11523,-0.15722 0.12793,-0.1709 0.25489,-0.34668 0.38184,-0.51953 0.43359,-0.58887 0.86621,-1.18653 1.30273,-1.81153 0.84961,-1.21777 1.59473,-2.32812 2.28125,-3.3955 0.008,-0.0127 0.0166,-0.0234 0.0244,-0.0361 0.008,-0.0127 0.0195,-0.0293 0.0283,-0.0439 l 9.8e-4,-0.002 c 9.7e-4,-9.7e-4 0.002,-0.003 0.002,-0.003 0.0469,-0.0732 0.10351,-0.16113 0.1416,-0.2246 0.0596,-0.0928 0.11816,-0.18555 0.17578,-0.27832 0.73535,-1.14649 1.4043,-2.23047 2.04199,-3.3086 0.0684,-0.11133 0.13282,-0.22558 0.19727,-0.34082 0.0225,-0.04 0.0479,-0.0791 0.0703,-0.12012 0.47364,-0.80566 0.94043,-1.61718 1.37793,-2.40039 0.53321,-0.93847 1.04981,-1.88476 1.52637,-2.79004 0.25879,-0.48144 0.51562,-0.96289 0.76562,-1.45312 0.36914,-0.70703 0.73536,-1.43848 1.10254,-2.1709 1.542,-3.07812 3.06348,-6.36328 4.53614,-9.82129 0.44726,-1.04687 0.88574,-2.10351 1.33007,-3.18847 0.88379,-2.1709 1.75098,-4.40528 2.55957,-6.6045 0.41211,-1.10351 0.81641,-2.22363 1.19922,-3.3164 0.20606,-0.5791 0.4043,-1.15821 0.60352,-1.73731 l 0.0342,-0.10156 c 0.17285,-0.49805 0.34473,-0.99902 0.51269,-1.50195 13.09668,5.3164 25.44727,12.1875 36.90528,20.5332 -0.34082,0.22168 -0.68067,0.45019 -1.02442,0.66992 z m -141.10254,23.10254 c -0.25683,-0.0635 -0.51562,-0.12207 -0.77246,-0.18652 -1.44824,-0.36328 -2.88965,-0.7461 -4.32715,-1.14356 -0.34667,-0.0967 -0.69335,-0.19531 -1.03906,-0.29394 -1.30566,-0.37012 -2.60742,-0.75391 -3.90332,-1.15332 -0.18262,-0.0566 -0.36523,-0.10938 -0.54785,-0.16602 -1.43945,-0.44922 -2.87109,-0.9209 -4.29883,-1.40625 -0.33301,-0.11328 -0.66504,-0.22851 -0.99707,-0.34375 -1.36328,-0.47266 -2.72265,-0.95898 -4.07422,-1.46484 -0.0869,-0.0322 -0.1748,-0.0625 -0.26172,-0.0957 -1.42871,-0.53711 -2.84863,-1.09863 -4.26367,-1.67285 -0.31836,-0.1289 -0.63574,-0.25976 -0.95312,-0.39062 -2.84082,-1.17285 -5.65235,-2.41895 -8.4336,-3.73926 -0.30273,-0.14355 -0.60546,-0.28809 -0.90722,-0.43359 -1.39063,-0.66993 -2.77637,-1.35254 -4.15137,-2.0586 -0.042,-0.0215 -0.083,-0.0439 -0.12402,-0.0654 -1.33399,-0.68652 -2.65821,-1.39551 -3.97754,-2.11718 -0.29004,-0.15821 -0.5791,-0.31641 -0.86817,-0.47657 -1.34765,-0.74707 -2.68945,-1.50781 -4.0205,-2.29101 -0.11719,-0.0693 -0.2334,-0.14063 -0.35059,-0.20996 -1.2334,-0.7295 -2.45801,-1.47657 -3.67676,-2.23633 -0.27832,-0.17383 -0.55762,-0.34668 -0.83496,-0.52149 -1.29883,-0.82031 -2.59082,-1.65527 -3.87305,-2.51074 -0.17968,-0.12012 -0.35742,-0.24316 -0.53613,-0.36328 -0.668944,-0.4502 -1.331053,-0.91602 -1.995116,-1.375 12.541996,-8.5918 26.052736,-15.44434 40.358396,-20.48242 0.1875,0.58398 0.375,1.16601 0.56739,1.74512 0.0928,0.29296 0.1914,0.58496 0.29199,0.87597 0.19629,0.59571 0.39941,1.18262 0.59277,1.73926 l 0.0459,0.13477 c 0.18652,0.54296 0.37207,1.083 0.55371,1.59472 0.0117,0.0342 0.0244,0.0723 0.0371,0.10645 0.39551,1.12793 0.7998,2.24902 1.19824,3.31543 0.82324,2.23633 1.68946,4.4707 2.5791,6.65332 0.43946,1.07324 0.87793,2.12988 1.32422,3.17578 1.30664,3.0664 2.65137,5.99805 4.0127,8.76855 0.0644,0.13086 0.12793,0.26856 0.19238,0.39844 0.47656,0.96289 0.95508,1.90625 1.43457,2.82617 0.25098,0.49024 0.50684,0.96973 0.73438,1.39453 0.50781,0.96289 1.02539,1.90918 1.52929,2.79688 0.48047,0.85742 0.96094,1.69336 1.44727,2.52051 0.0469,0.084 0.0957,0.16894 0.14453,0.25195 l -9.8e-4,9.8e-4 c 0.009,0.0146 0.0176,0.0293 0.0264,0.043 l -9.8e-4,9.7e-4 c 0.0108,0.0176 0.0215,0.0342 0.0322,0.0518 0.66016,1.11816 1.35352,2.24219 2.12012,3.43652 l 0.12597,0.19825 c 0.0469,0.0771 0.0947,0.15332 0.14356,0.22949 0.004,0.006 0.009,0.0127 0.0127,0.0195 0.005,0.007 0.009,0.0146 0.0127,0.0205 0.01,0.0146 0.0195,0.0283 0.0293,0.043 0.68164,1.05664 1.41211,2.14453 2.2373,3.33105 0.0166,0.0234 0.0322,0.0498 0.0498,0.0732 0.56933,0.8125 1.13769,1.60059 1.72363,2.38086 0.0254,0.0342 0.0508,0.0684 0.0762,0.10352 -0.2168,-0.0469 -0.43359,-0.0967 -0.64941,-0.14453 -1.26758,-0.28321 -2.53321,-0.57813 -3.79493,-0.8877 z m 86.24805,-49.17285 -0.0469,0.13574 c -0.17676,0.51367 -0.35157,1.02832 -0.54786,1.5791 -0.35156,1.00489 -0.71191,2.00196 -1.09277,3.02246 -0.74707,2.0293 -1.53223,4.05371 -2.3291,6.00782 -0.40137,0.98339 -0.80371,1.95019 -1.21484,2.91406 -1.63184,3.83105 -3.31641,7.41504 -5.00684,10.65137 -0.0166,0.0312 -0.0322,0.0625 -0.0478,0.0937 -0.19434,0.38183 -0.39551,0.75488 -0.62793,1.1875 -0.41113,0.78027 -0.8291,1.54687 -1.29297,2.36425 -0.4375,0.78223 -0.87598,1.542 -1.32031,2.29493 -0.0459,0.0771 -0.0898,0.15527 -0.13282,0.23339 -0.56933,0.9502 -1.14355,1.87403 -1.71875,2.78028 -0.0459,0.0713 -0.10351,0.16308 -0.1455,0.23144 l -0.1045,0.16699 c -0.003,0.005 -0.008,0.0117 -0.0107,0.0166 -0.63867,0.98047 -1.27734,1.93359 -1.91113,2.84472 -0.44434,0.63477 -0.88867,1.24903 -1.33887,1.85157 -0.0264,0.0351 -0.0537,0.0703 -0.0791,0.10644 -0.29492,0.40332 -0.60058,0.80859 -0.9082,1.19629 -0.0352,0.0439 -0.0693,0.0889 -0.10352,0.13379 -0.31445,0.41016 -0.6416,0.81445 -0.93359,1.16894 l -0.30567,0.37012 c -0.13476,0.16406 -0.26757,0.32813 -0.45117,0.54297 -0.43847,0.52344 -0.88281,1.03516 -1.37109,1.57324 -0.64649,0.72168 -1.30274,1.41114 -1.97656,2.0791 -0.33789,0.33106 -0.67383,0.66309 -1.07618,1.03516 -0.33496,0.31543 -0.67578,0.62402 -1.01757,0.92676 -0.0254,0.0225 -0.0518,0.0459 -0.0771,0.0684 l -0.15137,0.13086 c -0.13184,0.11328 -0.26172,0.22656 -0.46973,0.39941 -0.42871,0.36035 -0.86523,0.70899 -1.29199,1.03809 -0.22656,0.17382 -0.45312,0.34277 -0.71387,0.53613 -0.18652,0.14062 -0.37988,0.27344 -0.5664,0.40332 -0.0254,0.0186 -0.0518,0.0371 -0.0781,0.0557 -0.41699,0.29395 -0.83984,0.57129 -1.19336,0.79395 -0.24023,0.14844 -0.47461,0.29297 -0.71484,0.43555 -0.043,0.0254 -0.0859,0.0517 -0.12891,0.0781 -0.0654,0.04 -0.12988,0.0791 -0.19531,0.11231 -0.15918,0.082 -0.3164,0.16796 -0.47168,0.25878 -0.12597,0.0732 -0.25488,0.14258 -0.45898,0.24708 -0.99707,0.52343 -1.99805,0.958 -3.05078,1.32421 -0.37305,0.12598 -0.74707,0.2461 -1.12012,0.35157 l -0.72168,0.18847 c -0.17188,0.04 -0.33984,0.0801 -0.50781,0.11524 -0.0625,0.0127 -0.125,0.0264 -0.18653,0.041 -0.0576,0.0127 -0.11328,0.0225 -0.17187,0.0312 -0.0615,0.01 -0.12305,0.0195 -0.1836,0.0293 -0.42285,0.0723 -0.8457,0.13086 -1.25195,0.17969 -0.34277,0.0342 -0.68457,0.0615 -1.02734,0.0762 -0.006,0 -0.0107,0 -0.0166,9.8e-4 -0.0566,9.7e-4 -0.11328,0.003 -0.1709,0.006 -9.8e-4,0 -0.003,0 -0.004,9.7e-4 -0.12793,9.8e-4 -0.25683,0.003 -0.38476,0.0107 l -0.14746,9.8e-4 -0.14844,-9.8e-4 c -0.12696,-0.007 -0.25196,-0.006 -0.37989,-0.0107 -0.002,0 -0.004,-9.7e-4 -0.006,-9.7e-4 -0.0566,-0.003 -0.11329,-0.004 -0.1709,-0.006 -0.009,-9.8e-4 -0.0166,-9.8e-4 -0.0254,-9.8e-4 -0.33789,-0.0146 -0.67579,-0.042 -1.01465,-0.0752 -0.41895,-0.0498 -0.83985,-0.10742 -1.25977,-0.17968 -0.0605,-0.0108 -0.12011,-0.0205 -0.18066,-0.0283 -0.0586,-0.01 -0.11621,-0.0195 -0.17578,-0.0322 -0.0615,-0.0147 -0.125,-0.0283 -0.18653,-0.041 -0.16894,-0.0351 -0.33691,-0.0752 -0.50781,-0.11523 l -0.73633,-0.19238 c -0.38574,-0.10938 -0.7705,-0.23145 -1.13574,-0.35645 -0.99023,-0.34082 -2.00684,-0.7832 -3.0957,-1.35351 -0.12989,-0.0664 -0.25879,-0.13477 -0.38477,-0.20899 -0.15527,-0.0908 -0.3125,-0.17676 -0.47168,-0.25879 -0.0654,-0.0332 -0.12988,-0.0723 -0.19531,-0.1123 -0.043,-0.0264 -0.0859,-0.0527 -0.12891,-0.0781 -0.2207,-0.13183 -0.43847,-0.26562 -0.66699,-0.40722 -0.41699,-0.2627 -0.83691,-0.53711 -1.31933,-0.87891 -0.19043,-0.13281 -0.3877,-0.26953 -0.58887,-0.41992 -0.22949,-0.17188 -0.46192,-0.34278 -0.6836,-0.51367 -0.43554,-0.33594 -0.87207,-0.6836 -1.375,-1.10645 -0.13867,-0.11426 -0.27343,-0.23242 -0.41015,-0.35059 l -0.15039,-0.13085 c -0.0205,-0.0186 -0.042,-0.0371 -0.0625,-0.0557 -0.33887,-0.30078 -0.67676,-0.60644 -1.00781,-0.91894 -0.0244,-0.0225 -0.0498,-0.0459 -0.0752,-0.0693 -0.3418,-0.31445 -0.6748,-0.64355 -0.98145,-0.94434 -0.69824,-0.69043 -1.35351,-1.37988 -2.05468,-2.16308 -0.44336,-0.48828 -0.88575,-0.99707 -1.36817,-1.57227 -0.13769,-0.16015 -0.2705,-0.32422 -0.40527,-0.48828 l -0.27539,-0.33398 c -0.34082,-0.41504 -0.67969,-0.84473 -1.06738,-1.33887 -0.31543,-0.39746 -0.62403,-0.81445 -0.98731,-1.30273 -0.45019,-0.60157 -0.89453,-1.21582 -1.32715,-1.83497 -0.63769,-0.91699 -1.26953,-1.85839 -1.90039,-2.82812 -0.0547,-0.0859 -0.1123,-0.17871 -0.18164,-0.28711 -0.0264,-0.0439 -0.0547,-0.0879 -0.082,-0.13184 -0.58105,-0.91601 -1.16211,-1.85156 -1.7373,-2.81152 -0.0439,-0.0781 -0.0879,-0.15527 -0.13282,-0.23144 -0.44629,-0.75489 -0.88476,-1.51856 -1.35351,-2.35352 -0.43164,-0.75879 -0.84961,-1.52637 -1.29199,-2.36426 -0.2002,-0.37402 -0.40137,-0.74804 -0.59571,-1.1289 -0.0156,-0.0303 -0.0303,-0.0615 -0.0469,-0.0918 -1.69043,-3.23731 -3.375,-6.82227 -5.00977,-10.65625 -0.40918,-0.96094 -0.81152,-1.92871 -1.20801,-2.90039 -0.80078,-1.96582 -1.58691,-3.99024 -2.34765,-6.05664 -0.36621,-0.9834 -0.72656,-1.97949 -1.0918,-3.02246 -0.18262,-0.51368 -0.35742,-1.02832 -0.53418,-1.542 l -0.0586,-0.16796 c -0.17774,-0.51075 -0.35449,-1.02247 -0.52442,-1.54004 -0.0156,-0.0449 -0.0293,-0.0889 -0.0449,-0.13282 -0.0518,-0.14941 -0.10449,-0.29882 -0.15137,-0.44921 -0.0195,-0.0615 -0.0391,-0.12403 -0.0596,-0.18555 -0.12109,-0.36621 -0.24316,-0.73438 -0.36718,-1.11328 12.875,-2.96875 26.0957,-4.49512 39.43945,-4.49512 16.1416,0 32.02832,2.18652 47.36133,6.49512 -0.16407,0.47851 -0.32617,0.95117 -0.50098,1.4541 z m 12.46973,-51.04297 c -0.14258,0.85938 -0.28418,1.70996 -0.44434,2.61426 -0.99707,5.85547 -2.13867,11.69726 -3.39941,17.38086 -0.33301,1.51367 -0.67383,3.01172 -1.0166,4.47461 -0.51954,2.19726 -1.05079,4.33984 -1.57911,6.38769 -17.12695,-4.83789 -34.87207,-7.29492 -52.89453,-7.29492 -15.1709,0 -30.21093,1.75195 -44.84179,5.20801 -0.35157,-1.40235 -0.7002,-2.83203 -1.04297,-4.28223 -0.34668,-1.48242 -0.68848,-2.98047 -1.02539,-4.50976 -1.25977,-5.68457 -2.40235,-11.52735 -3.40332,-17.40918 -0.13672,-0.7793 -0.2666,-1.55762 -0.39746,-2.33594 l -0.0371,-0.22656 c -0.78321,-4.76465 -1.5,-9.70704 -2.14258,-14.71973 H 258.1045 c -0.64746,5.02051 -1.36328,9.95801 -2.14355,14.71289 z M 141.67285,242.48242 c -0.0195,-0.2334 -0.0391,-0.46191 -0.0586,-0.69922 -0.0508,-0.58398 -0.0947,-1.16601 -0.14258,-1.80957 -0.0674,-0.83301 -0.12891,-1.67578 -0.19238,-2.5166 -0.0361,-0.49219 -0.0713,-0.98438 -0.10645,-1.48828 l -0.0107,-0.14258 c -0.0225,-0.32129 -0.0469,-0.64258 -0.0645,-0.96484 -0.005,-0.0713 -0.01,-0.14356 -0.0156,-0.2168 -0.0322,-0.40625 -0.0576,-0.81934 -0.0908,-1.30664 -0.12109,-1.9082 -0.23633,-3.83008 -0.33691,-5.77051 -0.46582,-8.72559 -0.70215,-17.71191 -0.70215,-26.70898 0,-8.99707 0.23633,-17.98243 0.70019,-26.66602 l 0.0869,-1.63086 c 0.01,-0.16992 0.0176,-0.33789 0.0303,-0.50391 0.007,-0.0889 0.0127,-0.17871 0.0176,-0.2666 0.0596,-1.11621 0.12793,-2.22363 0.20605,-3.39746 0.0293,-0.48047 0.0586,-0.9541 0.0986,-1.50683 0.0312,-0.47461 0.0693,-0.9502 0.10254,-1.42383 h 119.45019 c 0.0352,0.49707 0.0703,0.99414 0.10449,1.51465 0.0332,0.44433 0.0596,0.88183 0.0859,1.32519 9.8e-4,0.0215 0.008,0.13379 0.01,0.15528 0.0742,1.10839 0.1416,2.21679 0.20214,3.33203 0.005,0.0889 0.0107,0.17871 0.0176,0.2666 0.0137,0.16601 0.0215,0.33398 0.0303,0.5039 l 0.085,1.58887 c 0.46582,8.73731 0.70312,17.72363 0.70312,26.70801 0,8.98535 -0.23633,17.9707 -0.7041,26.72656 -0.0996,1.9209 -0.21387,3.8418 -0.33496,5.73828 l -0.0137,0.20313 c -0.0234,0.36523 -0.0478,0.73437 -0.0772,1.09863 -0.006,0.0781 -0.0117,0.15723 -0.0166,0.23535 -0.0205,0.36231 -0.0469,0.72364 -0.0781,1.15039 -0.0908,1.3291 -0.18847,2.65039 -0.2998,4.02246 -0.0439,0.58399 -0.0879,1.16602 -0.14258,1.79395 -0.0186,0.2207 -0.0371,0.43457 -0.0557,0.65527 z M 99.999023,50.151367 c 0.207027,-0.139649 0.412107,-0.282227 0.619137,-0.419922 1.25879,-0.839844 2.52735,-1.65918 3.80274,-2.464844 0.31543,-0.199218 0.63183,-0.395508 0.94824,-0.591797 1.1543,-0.71875 2.31348,-1.425781 3.48047,-2.117187 0.17383,-0.102539 0.3457,-0.208008 0.51855,-0.310547 1.29786,-0.762695 2.6045,-1.503906 3.91797,-2.232422 0.33399,-0.185547 0.66992,-0.36914 1.00489,-0.551758 1.23535,-0.674804 2.47656,-1.338867 3.72461,-1.983398 0.11621,-0.05957 0.23046,-0.123047 0.34667,-0.182617 1.33692,-0.686524 2.6836,-1.34961 4.03418,-2.000977 0.34961,-0.167969 0.69922,-0.334961 1.04883,-0.500976 1.35742,-0.643555 2.71973,-1.276368 4.09082,-1.883789 0.0478,-0.02148 0.0977,-0.04199 0.14551,-0.06348 1.34668,-0.595703 2.70313,-1.168945 4.06348,-1.730469 0.35547,-0.146484 0.71191,-0.292969 1.06836,-0.4375 1.38574,-0.5625 2.77734,-1.112304 4.17675,-1.638672 0.1377,-0.05176 0.27637,-0.100586 0.41504,-0.152343 1.29688,-0.484375 2.60157,-0.951172 3.90918,-1.404297 0.35645,-0.124024 0.71192,-0.247071 1.06934,-0.369141 1.41309,-0.480469 2.83105,-0.947266 4.25586,-1.391601 0.19726,-0.06152 0.39551,-0.119141 0.5918,-0.179688 1.28417,-0.395508 2.57421,-0.775391 3.86816,-1.142578 0.3457,-0.09863 0.69043,-0.197266 1.03613,-0.292969 1.44043,-0.399414 2.88574,-0.783203 4.33789,-1.146484 0.24414,-0.06152 0.49024,-0.118164 0.73535,-0.177735 1.28516,-0.315429 2.57422,-0.616211 3.86817,-0.904296 0.20215,-0.04492 0.40527,-0.09082 0.60742,-0.134766 -0.11621,0.155273 -0.23437,0.318359 -0.35059,0.476562 -0.10839,0.146485 -0.21582,0.291993 -0.32519,0.441407 -0.37988,0.520507 -0.76074,1.049804 -1.1416,1.595703 -0.26856,0.386719 -0.54004,0.783203 -0.8086,1.178711 -0.46777,0.6875 -0.93359,1.383789 -1.33789,2.019531 -0.87402,1.345703 -1.7705,2.791992 -2.67773,4.320312 -0.49414,0.836915 -0.98828,1.691407 -1.47461,2.555665 -2.8125,5.001953 -5.51367,10.532226 -8.0293,16.439453 -0.006,0.0127 -0.0107,0.02539 -0.0156,0.03809 0,9.76e-4 -9.8e-4,0.002 -9.8e-4,0.002 -0.008,0.01758 -0.0146,0.03418 -0.0215,0.05078 -0.62012,1.459961 -1.22754,2.951172 -1.85059,4.507812 -0.54297,1.372071 -1.25391,3.194336 -1.93555,5.056641 -0.41211,1.102539 -0.8164,2.222656 -1.20898,3.344727 -0.25977,0.738281 -0.51856,1.476562 -0.78418,2.256836 l -0.56543,1.677734 c -0.14551,0.436523 -0.29102,0.871094 -0.43066,1.308594 -0.1084,0.319336 -0.21192,0.640625 -0.31543,0.961914 -14.30567,-5.039063 -27.81446,-11.892578 -40.354496,-20.482422 0.648438,-0.453125 1.291992,-0.905274 1.943359,-1.34375 z M 240.25879,23.78125 c 1.38965,0.305664 2.77441,0.631836 4.15527,0.970703 0.32715,0.08008 0.65332,0.162109 0.98047,0.24414 1.29688,0.326172 2.5918,0.663086 3.87988,1.016602 0.10157,0.02832 0.20411,0.05371 0.30567,0.08203 1.38965,0.384766 2.77246,0.790039 4.15137,1.208008 0.29687,0.08984 0.59277,0.181641 0.88964,0.273438 1.3086,0.404296 2.61426,0.819336 3.91309,1.253906 0.0752,0.02539 0.15137,0.04883 0.22656,0.07422 1.37696,0.461914 2.7461,0.945312 4.11133,1.440429 0.27734,0.101563 0.55469,0.204102 0.83203,0.305664 1.30762,0.482422 2.61133,0.975586 3.90723,1.488282 0.0557,0.02148 0.11133,0.04297 0.16601,0.06445 1.35645,0.538086 2.70508,1.096679 4.04883,1.668945 0.26758,0.113281 0.53418,0.228516 0.80176,0.344727 1.28711,0.554687 2.56934,1.121093 3.84473,1.707031 0.0498,0.02246 0.10058,0.04492 0.15039,0.06738 1.32812,0.611328 2.64648,1.243164 3.96093,1.887695 0.26465,0.129883 0.52735,0.260742 0.79102,0.391602 1.25293,0.62207 2.5,1.255859 3.73926,1.908203 0.0547,0.02832 0.11035,0.05664 0.16504,0.08496 1.29199,0.68164 2.57422,1.382812 3.85156,2.096679 0.26562,0.148438 0.53027,0.297852 0.79492,0.447266 1.21289,0.685547 2.4209,1.382812 3.61914,2.097656 0.0596,0.03613 0.1211,0.07031 0.18067,0.105469 1.25293,0.749023 2.49609,1.518555 3.73339,2.299805 0.26856,0.169922 0.53614,0.34082 0.80469,0.511718 0.37012,0.236329 0.73633,0.482422 1.10547,0.72168 -11.45215,8.344727 -23.7998,15.21582 -36.90039,20.533203 l -0.37402,-1.109375 c -0.25098,-0.735351 -0.50879,-1.469726 -0.76465,-2.198242 -0.39453,-1.126953 -0.79883,-2.248047 -1.19141,-3.296875 -0.70215,-1.916016 -1.41308,-3.737305 -1.97363,-5.152344 -0.61914,-1.547851 -1.23828,-3.071289 -1.87207,-4.55664 -2.51465,-5.90625 -5.21582,-11.436524 -8.0293,-16.44043 -0.48437,-0.862305 -0.97949,-1.716797 -1.48633,-2.575195 -0.89453,-1.506836 -1.79101,-2.953125 -2.66601,-4.301758 -0.44141,-0.679688 -0.88477,-1.352539 -1.33594,-2.015625 -0.26855,-0.396485 -0.54004,-0.792969 -0.81543,-1.189453 -0.52832,-0.75586 -1.05762,-1.483399 -1.58594,-2.194336 -0.0693,-0.09277 -0.13867,-0.195313 -0.208,-0.288086 0.0303,0.0098 0.0615,0.01563 0.0928,0.02246 z m -76.74805,36.637695 c 2.23731,-5.251953 4.6211,-10.136719 7.08301,-14.517578 0.41699,-0.742188 0.8418,-1.476563 1.25391,-2.174805 0.76464,-1.286133 1.52539,-2.511719 2.30175,-3.711914 0.34571,-0.541015 0.70508,-1.075195 1.06348,-1.603515 0.22852,-0.335938 0.45801,-0.671875 0.67969,-0.991211 0.67578,-0.96875 1.35156,-1.889649 2.00781,-2.737305 0.0264,-0.03418 0.0537,-0.06836 0.0791,-0.102539 0.39453,-0.524414 0.80274,-1.035156 1.26465,-1.597656 0.6875,-0.854493 1.38965,-1.676758 2.13086,-2.493164 0.45508,-0.50879 0.91602,-0.995118 1.3418,-1.439454 0.2041,-0.209961 0.40039,-0.414062 0.59082,-0.598632 l 0.31738,-0.309571 c 0.12988,-0.127929 0.25879,-0.253906 0.38965,-0.377929 0.043,-0.04004 0.0859,-0.08106 0.12793,-0.123047 0.19824,-0.192383 0.39648,-0.379883 0.58203,-0.548828 0.23535,-0.215821 0.47754,-0.429688 0.71289,-0.637696 0.0381,-0.03418 0.0762,-0.06836 0.11328,-0.102539 0.63672,-0.552734 1.26465,-1.068359 1.89258,-1.550781 0.23633,-0.183594 0.47168,-0.359375 0.72461,-0.549805 0.13086,-0.09766 0.25976,-0.193359 0.38965,-0.280273 0.0508,-0.0332 0.10156,-0.06738 0.15039,-0.102539 0.50586,-0.34961 1.00976,-0.681641 1.52148,-1 0.11035,-0.06934 0.22461,-0.139649 0.33887,-0.205078 0.0869,-0.04981 0.24512,-0.145508 0.33008,-0.198243 0.0908,-0.05566 0.18457,-0.106445 0.29785,-0.171875 0.0137,-0.0078 0.0234,-0.01367 0.0273,-0.01563 0.085,-0.04492 0.16895,-0.09082 0.25293,-0.138671 0.34082,-0.19336 0.68946,-0.370118 1.07129,-0.556641 0.0478,-0.02246 0.0967,-0.04492 0.14551,-0.06738 0.33789,-0.163086 0.67676,-0.3125 1.01367,-0.453125 0.0391,-0.0166 0.0752,-0.0332 0.11426,-0.0498 0.54687,-0.228515 1.16308,-0.454101 1.77734,-0.65039 0.19532,-0.06152 0.38867,-0.116211 0.57032,-0.167969 0.0186,-0.0049 0.0352,-0.0098 0.0547,-0.01563 0.37598,-0.104492 0.75684,-0.193359 1.13867,-0.272461 0.0635,-0.01465 0.12696,-0.02734 0.19043,-0.04297 0.0625,-0.01465 0.12598,-0.0293 0.1875,-0.04004 0.0469,-0.0068 0.0937,-0.01465 0.13965,-0.02148 0.43457,-0.07324 0.87696,-0.135742 1.22852,-0.177734 0.31543,-0.03418 0.63281,-0.04981 0.94922,-0.06348 0.0361,-0.002 0.0723,-0.0039 0.1084,-0.0059 0.21093,-0.0127 0.42187,-0.02149 0.63085,-0.02149 0.0391,0 0.0771,-0.0049 0.11719,-0.0059 0.0391,0 0.0771,0.0059 0.11719,0.0059 0.21094,0 0.4209,0.0098 0.63086,0.02149 0.0361,0.002 0.0723,0.0039 0.1084,0.0059 0.28711,0.0127 0.56933,0.02832 0.79687,0.04981 0.0215,0.002 0.0498,0.0029 0.0713,0.0059 0.43457,0.05078 0.87403,0.112305 1.30762,0.18457 0.0478,0.0088 0.0947,0.0166 0.14258,0.02246 0.0625,0.0098 0.12695,0.02441 0.18847,0.03906 0.0654,0.01563 0.13184,0.0293 0.19727,0.04395 0.39844,0.08399 0.78906,0.182617 1.18164,0.28711 0.17578,0.0498 0.35449,0.101562 0.55859,0.165039 0.0586,0.01953 0.11133,0.03906 0.16895,0.05762 0.50195,0.157226 0.99121,0.335937 1.45801,0.533203 0.0703,0.02832 0.14453,0.05469 0.21386,0.08398 0.39161,0.161133 0.78321,0.340821 1.17481,0.526367 0.42285,0.212891 0.8418,0.429688 1.26465,0.660157 0.0361,0.01953 0.0723,0.03906 0.10937,0.05859 l 0.0283,0.01563 c 0.006,0.0039 0.0117,0.0068 0.0166,0.0098 0.0937,0.05469 0.1875,0.105469 0.27442,0.15918 0.11523,0.07226 0.23144,0.142578 0.34961,0.209961 0.10937,0.0625 0.21875,0.130859 0.32324,0.196289 0.004,0.002 0.008,0.0049 0.0117,0.0068 0.50293,0.314453 1.00586,0.644531 1.50879,0.99414 0.0508,0.03516 0.10156,0.06934 0.15136,0.102539 0.13086,0.08692 0.25977,0.183594 0.40723,0.293946 0.22461,0.167969 0.45313,0.338867 0.7041,0.533203 0.0156,0.01172 0.0273,0.02051 0.043,0.0332 0.58985,0.453125 1.20899,0.960938 1.84082,1.509766 0.042,0.03809 0.084,0.07617 0.12598,0.113281 0.23535,0.208008 0.47754,0.422851 0.70019,0.625976 0.20215,0.184571 0.40528,0.375977 0.6084,0.573243 0.0342,0.0332 0.0684,0.06543 0.10254,0.09961 0.13086,0.123047 0.25977,0.25 0.38867,0.376953 l 0.31739,0.30957 c 0.20312,0.197266 0.39941,0.401368 0.56836,0.574219 0.46191,0.481446 0.92187,0.967774 1.42089,1.525391 0.69727,0.767578 1.39942,1.589844 2.14063,2.509765 0.40527,0.495118 0.8125,1.001954 1.2041,1.523438 0.0273,0.03711 0.0566,0.07422 0.085,0.110352 0.65625,0.846679 1.33106,1.768554 2.00098,2.727539 0.22851,0.328125 0.45801,0.665039 0.68652,1.000976 0.375,0.549805 0.74219,1.108399 1.10742,1.670899 0.7334,1.130859 1.49317,2.356445 2.24512,3.62207 0.42578,0.71875 0.85059,1.453125 1.2666,2.193359 2.46192,4.38086 4.84375,9.261719 7.08106,14.514649 0.57324,1.362304 1.14648,2.753906 1.69531,4.125976 0.5,1.267578 1.15527,2.941407 1.80273,4.707032 0.36621,0.984375 0.72657,1.982421 1.08106,2.993164 0.23926,0.682617 0.47949,1.365234 0.68847,1.976562 l 0.39844,1.183594 c -15.33301,4.308594 -31.21972,6.495117 -47.36133,6.495117 -13.34082,0 -26.56152,-1.526367 -39.43945,-4.494141 0.0166,-0.05078 0.0322,-0.102539 0.0498,-0.15332 0.0244,-0.07227 0.0488,-0.144531 0.0723,-0.217773 0.12109,-0.38086 0.24707,-0.756836 0.37402,-1.135743 l 0.54493,-1.618164 c 0.23144,-0.678711 0.4707,-1.358398 0.71093,-2.042968 0.35254,-1.004883 0.71289,-2.003907 1.09961,-3.041016 0.62793,-1.712891 1.28321,-3.386719 1.76563,-4.611328 0.57226,-1.410156 1.13672,-2.800781 1.71484,-4.161133 z m -19.9082,80.307615 c 0.15918,-1.29199 0.32617,-2.57617 0.50098,-3.8623 0.54394,-4.04395 1.1289,-7.97657 1.74414,-11.71094 l 0.5332,-3.15625 c 0.12402,-0.72168 0.24805,-1.44336 0.38281,-2.18262 l 0.38379,-2.13672 c 0.24024,-1.28418 0.48047,-2.56054 0.71192,-3.77637 0.92773,-4.75878 1.94335,-9.4541 3.03222,-14.001946 0.26074,-1.113281 0.52735,-2.219727 0.82031,-3.387695 0.007,-0.02637 0.0234,-0.09277 0.0303,-0.118165 0.0147,-0.05664 0.0293,-0.112304 0.043,-0.168945 14.63476,3.455078 29.6748,5.205081 44.84179,5.205081 18.02051,0 35.76563,-2.457034 52.8916,-7.293948 0.19239,0.748047 0.38672,1.49707 0.57422,2.241211 0.004,0.01758 0.0234,0.09863 0.0283,0.115234 0.28125,1.119141 0.55664,2.256836 0.83692,3.455078 1.07617,4.499025 2.09277,9.194335 3.01172,13.908205 0.23925,1.25879 0.47949,2.5332 0.70703,3.74804 l 0.40137,2.23828 c 0.13964,0.76368 0.2705,1.52637 0.40234,2.29297 l 0.16699,0.96973 c 0.11621,0.6709 0.22559,1.34277 0.3457,2.06934 0.61231,3.72363 1.19825,7.65625 1.74219,11.70117 0.17285,1.27636 0.33985,2.55957 0.50195,3.87695 0.21387,1.70703 0.41797,3.43848 0.61524,5.18066 H 142.9834 c 0.19922,-1.75 0.40332,-3.48828 0.61914,-5.20605 z M 72.688477,72.616211 c 2.546875,-2.547852 5.157226,-5.010742 7.759765,-7.321289 0.498047,-0.442383 1.001953,-0.865235 1.501953,-1.300782 15.671875,11.487305 32.783205,20.470704 51.064455,26.785157 -0.0684,0.271484 -0.1416,0.547851 -0.20899,0.817382 -0.006,0.02442 -0.0254,0.102539 -0.0312,0.126954 -0.30859,1.227539 -0.61035,2.472656 -0.8916,3.676757 -1.14062,4.7666 -2.21484,9.7334 -3.2041,14.80664 -0.24316,1.27734 -0.48535,2.57129 -0.74512,3.95898 l -0.39062,2.17774 c -0.1416,0.77832 -0.27539,1.55566 -0.41016,2.33594 l -0.18652,1.0791 c -0.006,0.0371 -0.0127,0.0752 -0.0195,0.1123 l -0.35352,2.12793 c -0.64258,3.90234 -1.25781,8.02832 -1.82519,12.25098 -0.1836,1.35449 -0.36035,2.71777 -0.52637,4.06543 -0.31445,2.50097 -0.60742,5.04785 -0.88574,7.61621 H 27.978516 C 36.667969,118.42187 51.84375,93.435547 72.688477,72.616211 Z M 19.53125,200.8584 c 0,-9.42383 0.728516,-18.87207 2.166992,-28.08985 0.379883,-2.45019 0.810547,-4.88476 1.28711,-7.30469 H 121.6123 c -0.002,0.0234 -0.004,0.0488 -0.005,0.0723 -0.041,0.56348 -0.0752,1.11816 -0.10449,1.61621 -0.0791,1.17481 -0.15039,2.34961 -0.22266,3.53223 -0.0254,0.44336 -0.0517,0.8789 -0.0693,1.32324 l -0.0586,1.10156 c -0.48437,9.07032 -0.73046,18.40723 -0.73046,27.74903 0,9.34277 0.24609,18.67968 0.72949,27.73242 0.10254,2.00097 0.22265,4.00293 0.34863,5.98926 0,0 0.007,0.10253 0.007,0.10742 0.0303,0.46191 0.0615,0.92773 0.0967,1.38965 0.003,0.0508 0.007,0.10156 0.01,0.15136 l 0.0605,0.97754 c 0.004,0.0625 0.008,0.12598 0.0127,0.1875 0.10254,1.39453 0.20508,2.78028 0.3125,4.09864 0.0244,0.33203 0.0498,0.66406 0.0752,0.99023 H 95.788086 c -5.392578,0 -9.765625,4.37305 -9.765625,9.76562 0,5.39356 4.373047,9.76563 9.765625,9.76563 H 124.0498 c 0.75,6.10156 1.6045,12.11719 2.55762,17.91699 l 0.043,0.25586 c 0.13867,0.82617 0.27637,1.65137 0.41309,2.43262 1.04785,6.15332 2.25293,12.31347 3.5791,18.2959 0.35156,1.60156 0.71289,3.1875 1.08496,4.77636 0.42285,1.78614 0.85351,3.5293 1.28808,5.24512 -18.28222,6.31445 -35.395503,15.29883 -51.070308,26.78809 -0.495117,-0.42969 -1,-0.85352 -1.487304,-1.28614 -2.673828,-2.38183 -5.288086,-4.84961 -7.774414,-7.33398 C 38.408203,294.8623 19.53125,249.3164 19.53125,200.8584 Z m 309.63477,128.23925 c -2.52051,2.51172 -5.14161,4.98243 -7.78223,7.33594 -1.79395,1.5957 -3.64063,3.1709 -5.52734,4.71485 -14.62208,-11.38184 -30.63477,-20.53809 -47.78321,-27.30665 0.68457,-2.60058 1.36817,-5.33789 2.03809,-8.16894 0.36719,-1.56934 0.72851,-3.15527 1.07715,-4.73926 0.99511,-4.48535 1.92187,-9.07226 2.76172,-13.66406 0.28027,-1.53027 0.55078,-3.06152 0.81054,-4.58887 0.16113,-0.91601 0.31641,-1.84082 0.47168,-2.78027 0.76367,-4.65039 1.4707,-9.45606 2.10938,-14.34961 0.15332,-1.17285 0.29785,-2.35547 0.44336,-3.53711 h 93.958 c -8.96484,25.08496 -23.40722,47.92578 -42.57714,67.08398 z"
     inkscape:connector-curvature="0"
     style="fill:#1575b3;fill-opacity:1;stroke-width:0.80345291" /><path
     id="path8"
     d="m 342.2666,165.46191 c -0.63379,0 -1.2793,-0.0586 -1.91406,-0.18457 -0.61524,-0.12695 -1.23047,-0.3125 -1.82617,-0.55664 -0.58594,-0.24414 -1.15235,-0.54687 -1.67969,-0.89844 -0.53711,-0.36132 -1.03516,-0.77148 -1.48438,-1.2207 -1.8164,-1.81641 -2.8623,-4.33691 -2.8623,-6.9043 0,-0.63379 0.0684,-1.27929 0.19531,-1.90429 0.11719,-0.625 0.3125,-1.24024 0.55664,-1.8252 0.24414,-0.5957 0.54688,-1.16211 0.88867,-1.68945 0.36133,-0.53711 0.77149,-1.03418 1.22071,-1.48438 0.44922,-0.44922 0.94726,-0.86035 1.48437,-1.21093 0.52735,-0.35157 1.09375,-0.6543 1.67969,-0.89844 0.5957,-0.24414 1.21094,-0.43067 1.82617,-0.55664 3.17383,-0.64453 6.55274,0.40039 8.81836,2.66601 0.44922,0.44922 0.85938,0.94727 1.21094,1.48438 0.35059,0.52734 0.6543,1.09375 0.89844,1.68945 0.24414,0.58594 0.43945,1.20117 0.55664,1.8252 0.12695,0.62597 0.19433,1.2705 0.19433,1.90429 0,2.56836 -1.04394,5.08789 -2.86132,6.9043 -0.44922,0.44922 -0.94727,0.85938 -1.48438,1.2207 -0.52734,0.35157 -1.09375,0.6543 -1.68945,0.89844 -0.58594,0.24414 -1.20117,0.42969 -1.82617,0.55664 -0.62305,0.12598 -1.26758,0.18457 -1.90235,0.18457 z"
     inkscape:connector-curvature="0"
     style="fill:#1575b3;fill-opacity:1;stroke-width:0.80345291" /><path
     id="path10"
     d="m 55.330078,262.01562 c -0.634766,0 -1.280273,-0.0684 -1.914062,-0.19531 -0.616211,-0.12695 -1.231446,-0.31152 -1.826172,-0.55566 -0.586914,-0.24414 -1.153321,-0.54786 -1.680664,-0.89844 -0.53711,-0.35156 -1.035157,-0.76172 -1.484375,-1.21094 -0.449219,-0.44922 -0.859375,-0.94726 -1.210938,-1.48535 -0.350586,-0.52734 -0.654297,-1.09375 -0.898437,-1.68848 -0.244141,-0.58691 -0.439453,-1.20117 -0.556641,-1.82617 -0.126953,-0.625 -0.194336,-1.26953 -0.194336,-1.9043 0,-0.63378 0.06738,-1.27929 0.194336,-1.90429 0.117188,-0.625 0.3125,-1.24024 0.556641,-1.83594 0.24414,-0.58594 0.547851,-1.15234 0.898437,-1.67969 0.351563,-0.53711 0.761719,-1.03515 1.210938,-1.48437 0.449218,-0.44922 0.947265,-0.85938 1.484375,-1.22071 0.527343,-0.35058 1.09375,-0.64355 1.680664,-0.88769 0.594726,-0.24414 1.209961,-0.43945 1.826172,-0.56641 1.259765,-0.24414 2.557617,-0.24414 3.817382,0 0.625977,0.12696 1.241211,0.32227 1.826172,0.56641 0.595703,0.24414 1.16211,0.53711 1.689453,0.88769 0.53711,0.36133 1.035157,0.77149 1.484375,1.22071 0.449219,0.45019 0.859375,0.94824 1.220704,1.48437 0.342773,0.52735 0.644531,1.09375 0.888671,1.67969 0.244141,0.5957 0.439454,1.21094 0.556641,1.83594 0.126953,0.62597 0.195313,1.27051 0.195313,1.90429 0,0.63477 -0.06836,1.28028 -0.195313,1.9043 -0.117187,0.625 -0.3125,1.24024 -0.556641,1.82617 -0.24414,0.59473 -0.546875,1.16114 -0.898437,1.68848 -0.351563,0.53809 -0.761719,1.03516 -1.210938,1.48535 -0.449218,0.44922 -0.947265,0.85938 -1.484375,1.21094 -0.527343,0.35058 -1.09375,0.6543 -1.689453,0.89844 -0.585937,0.24414 -1.200195,0.42871 -1.826172,0.55566 -0.624023,0.125 -1.268554,0.19531 -1.90332,0.19531 z"
     inkscape:connector-curvature="0"
     style="fill:#1575b3;fill-opacity:1;stroke-width:0.80345291" /></g>






<g
   id="g28"
   transform="translate(0,38.316122)">
</g>
<g
   id="g30"
   transform="translate(0,38.316122)">
</g>
<g
   id="g32"
   transform="translate(0,38.316122)">
</g>
<g
   id="g34"
   transform="translate(0,38.316122)">
</g>
<g
   id="g36"
   transform="translate(0,38.316122)">
</g>
<g
   id="g38"
   transform="translate(0,38.316122)">
</g>
<g
   id="g40"
   transform="translate(0,38.316122)">
</g>
<g
   id="g42"
   transform="translate(0,38.316122)">
</g>
<g
   id="g44"
   transform="translate(0,38.316122)">
</g>
<g
   id="g46"
   transform="translate(0,38.316122)">
</g>
<g
   id="g48"
   transform="translate(0,38.316122)">
</g>
<g
   id="g50"
   transform="translate(0,38.316122)">
</g>
<g
   id="g52"
   transform="translate(0,38.316122)">
</g>
<g
   id="g54"
   transform="translate(0,38.316122)">
</g>
<g
   id="g56"
   transform="translate(0,38.316122)">
</g>
</svg>