<?xml version="1.0" encoding="UTF-8" standalone="no"?>
<!-- Created with Inkscape (http://www.inkscape.org/) -->

<svg
   xmlns:dc="http://purl.org/dc/elements/1.1/"
   xmlns:cc="http://creativecommons.org/ns#"
   xmlns:rdf="http://www.w3.org/1999/02/22-rdf-syntax-ns#"
   xmlns:svg="http://www.w3.org/2000/svg"
   xmlns="http://www.w3.org/2000/svg"
   xmlns:sodipodi="http://sodipodi.sourceforge.net/DTD/sodipodi-0.dtd"
   xmlns:inkscape="http://www.inkscape.org/namespaces/inkscape"
   width="1583"
   height="702.31415"
   viewBox="0 0 418.83541 185.82063"
   version="1.1"
   id="svg8"
   inkscape:version="0.92.4 (5da689c313, 2019-01-14)"
   sodipodi:docname="wavy.svg">
  <defs
     id="defs2" />
  <sodipodi:namedview
     id="base"
     pagecolor="#ffffff"
     bordercolor="#666666"
     borderopacity="1.0"
     inkscape:pageopacity="0.0"
     inkscape:pageshadow="2"
     inkscape:zoom="0.175"
     inkscape:cx="1251.5267"
     inkscape:cy="450.32211"
     inkscape:document-units="mm"
     inkscape:current-layer="layer1"
     showgrid="false"
     units="px"
     fit-margin-top="0"
     fit-margin-left="0"
     fit-margin-right="0"
     fit-margin-bottom="0"
     inkscape:window-width="1600"
     inkscape:window-height="837"
     inkscape:window-x="-8"
     inkscape:window-y="-8"
     inkscape:window-maximized="1" />
  <metadata
     id="metadata5">
    <rdf:RDF>
      <cc:Work
         rdf:about="">
        <dc:format>image/svg+xml</dc:format>
        <dc:type
           rdf:resource="http://purl.org/dc/dcmitype/StillImage" />
        <dc:title></dc:title>
      </cc:Work>
    </rdf:RDF>
  </metadata>
  <g
     inkscape:label="Layer 1"
     inkscape:groupmode="layer"
     id="layer1"
     transform="translate(250.42523,-163.91497)">
    <g
       id="g819"
       transform="matrix(0.56191922,0,0,0.56191922,-109.70648,153.21244)"
       style="stroke-width:1.77961528">
      <path
         style="fill:#f5f5f5;fill-opacity:1;stroke-width:1.7796154"
         d="m -250.42522,293.50821 v -56.22738 l 9.31704,-1.52731 c 22.06653,-3.61732 43.729,-6.30611 67.70471,-8.40361 21.52618,-1.88322 31.54962,-2.34378 56.19851,-2.58223 33.637391,-0.32541 51.700277,0.44473 80.098965,3.41516 40.8315283,4.27087 76.789879,11.04046 140.729545,26.494 65.23597,15.76685 102.41108,22.48846 140.4514,25.39493 40.99067,3.13188 78.56646,1.85205 128.7703,-4.38596 34.8866,-4.33478 85.82755,-13.81415 117.22827,-21.81446 l 4.86713,-1.24005 v 48.55214 48.55214 H 122.25772 -250.42522 Z"
         id="path845-6"
         inkscape:connector-curvature="0" />
      <path
         style="fill:#f5f5f5;fill-opacity:1;stroke-width:1.7796154"
         d="m 494.94066,75.273761 v 56.227379 l -9.31706,1.52732 c -22.06652,3.61731 -43.72899,6.3061 -67.70469,8.4036 -21.52619,1.88323 -31.54962,2.34378 -56.19851,2.58223 -33.63741,0.32542 -51.70031,-0.44473 -80.09899,-3.41516 -40.83154,-4.27087 -76.78988,-11.04046 -140.72953,-26.494 C 75.655884,98.338285 38.480779,91.616668 0.44044981,88.710195 -40.550212,85.578319 -78.126004,86.85815 -128.32983,93.096161 c -34.8866,4.334784 -85.82755,13.814149 -117.22828,21.814469 l -4.86712,1.24004 V 67.598524 19.046378 H 122.2577 494.94066 Z"
         id="path845-6-9"
         inkscape:connector-curvature="0" />
    </g>
  </g>
</svg>
